<ttFont>
<head>
    <!-- Most of this table will be recalculated by the compiler -->
    <tableVersion value="1.0"/>
    <fontRevision value="1.56"/>
    <checkSumAdjustment value="0x20bb97ab"/>
    <magicNumber value="0x5f0f3cf5"/>
    <flags value="00000000 00000011"/>
    <unitsPerEm value="1000"/>
    <created value="Thu Aug 30 11:18:12 2012"/>
    <modified value="Thu Aug 30 11:18:12 2012"/>
    <xMin value="-32"/>
    <yMin value="-250"/>
    <xMax value="777"/>
    <yMax value="952"/>
    <macStyle value="00000000 00000000"/>
    <lowestRecPPEM value="3"/>
    <fontDirectionHint value="2"/>
    <indexToLocFormat value="0"/>
    <glyphDataFormat value="0"/>
  </head>
          <CharString index="0">
            rmoveto
            -3 -51 -18 -36 -35 -27 rrcurveto
            -14 -8 callsubr
            -31 -3 -3 0 -3 hhcurveto
            -3 -4 0 1 -3 hvcurveto
            -9 -8 -5 -8 -9 vvcurveto
            -12 10 -7 15 -4 vhcurveto
            15 -5 18 -3 19 -3 32 -4 34 -8 28 -19 rrcurveto
            27 -19 19 -29 -48 vvcurveto
            -53 -23 -36 -32 -21 vhcurveto
            -21 -33 -44 -9 -41 hhcurveto
            -48 1 -41 7 -28 16 rrcurveto
            -29 16 -16 26 40 vvcurveto
            19 10 16 15 14 vhcurveto
            15 14 20 11 19 9 rrcurveto
            -33 9 -28 21 43 vvcurveto
            16 9 16 12 15 vhcurveto
            12 15 15 12 15 8 -29 19 -14 30 -7 25 -4 15 -3 15 -1 15 rrcurveto
            149 vlineto
            4 51 16 37 35 29 -50 callsubr
            31 hhcurveto
            51 31 -23 -27 19 hvcurveto
            7 7 12 12 16 11 rrcurveto
            11 15 17 9 16 hhcurveto
            -90 vlineto
            -27 -20 -5 -7 -12 hvcurveto
            1 -5 1 -5 1 -3 rrcurveto
            -4 0 -4 1 -3 vhcurveto
            1 -3 0 -4 -3 vvcurveto
            -99 -7 rmoveto
            19 -4 12 -8 11 vhcurveto
            5 -4 -6 3 callsubr
            -16 -8 -13 -12 -3 hvcurveto
            -2 -7 14 callgsubr
            -9 rrcurveto
            -150 vlineto
            -1 -19 3 -12 9 -10 rrcurveto
            -5 4 6 -3 8 hhcurveto
            17 7 12 12 4 hvcurveto
            2 7 1 9 9 vvcurveto
            hintmask 11000000
            -47 -287 rmoveto
            -21 -12 -16 -15 -21 vvcurveto
            -21 19 -17 47 17 19 3 6 15 vhcurveto
            15 6 11 9 13 vvcurveto
            9 -1 7 -7 7 vhcurveto
            -8 7 -13 5 -25 4 rrcurveto
            endchar
          </CharString>
          <CharString index="1">
            -105 callgsubr
            -98 callgsubr
          </CharString>
          <CharString index="2">
            -67 callgsubr
            -65 -33 -84 callgsubr
            17 39 36 30 rrcurveto
            15 17 25 7 33 -102 callsubr
            endchar
          </CharString>
          <CharString index="3">
            -95 callgsubr
            -95 -3 -99 callsubr
            endchar
          </CharString>
          <CharString index="4">
            rmoveto
            -101 vlineto
            -96 callgsubr
            -101 -101 101 -69 callsubr
            -433 -68 callgsubr
            101 vlineto
            return
          </CharString>
          <CharString index="5">
            -68 callsubr
            -119 vlineto
            -97 callgsubr
            return
          </CharString>
          <CharString index="6">
            rmoveto
            24 -1 27 -7 39 callsubr
            -7 -11 14 -17 hhcurveto
            -28 -1 -9 -29 -43 vvcurveto
            -25 11 -26 16 -28 vhcurveto
            16 -28 21 -29 21 -31 25 -37 25 -38 19 -37 rrcurveto
            19 -37 13 -38 -40 vvcurveto
            -49 -8 -46 -23 -34 vhcurveto
            -34 -23 -37 -22 -59 hhcurveto
            -69 -39 26 40 -22 hvcurveto
            -22 40 -5 53 55 vvcurveto
            hintmask 11000000
            106 10 rlineto
            -31 1 -31 8 -23 vhcurveto
            -24 7 12 -16 23 hhcurveto
            32 12 34 47 24 -12 28 -16 29 hvcurveto
            -9 14 -9 15 -10 15 -21 30 -23 34 -24 37 -24 37 -18 38 -11 39 rrcurveto
            -6 19 -3 20 20 vvcurveto
            40 9 43 23 33 vhcurveto
            23 32 35 23 51 1 65 1 38 -27 21 -39 rrcurveto
            21 -40 6 -49 -41 vvcurveto
            return
          </CharString>
          <CharString index="7">
            vlineto
            -101 callgsubr
            return
          </CharString>
          <CharString index="8">
            rmoveto
            1 21 -4 15 -10 12 rrcurveto
            -54 callsubr
            -63 callsubr
            1 -11 rrcurveto
            -275 vlineto
            -1 -21 5 -91 callsubr
            -1 11 rrcurveto
            return
          </CharString>
          <CharString index="9">
            -5 5 7 -3 9 -87 callgsubr
            return
          </CharString>
          <CharString index="10">
            -89 callsubr
            -79 callgsubr
          </CharString>
          <CharString index="11">
            -92 callsubr
            584 7 callgsubr
            vlineto
            -81 callgsubr
          </CharString>
          <CharString index="12">
            23 callsubr
            -433 -100 callsubr
            endchar
          </CharString>
          <CharString index="13">
            1 29 6 27 11 23 9 20 13 20 20 15 rrcurveto
            15 20 28 10 36 hhcurveto
            return
          </CharString>
          <CharString index="14">
            vlineto
            -91 callgsubr
            return
          </CharString>
          <CharString index="15">
            rmoveto
            -584 -93 callsubr
            return
          </CharString>
          <CharString index="16">
            -15 9 -11 rrcurveto
            -98 callsubr
            8 1 9 return
          </CharString>
          <CharString index="17">
            683 -102 callgsubr
            return
          </CharString>
          <CharString index="18">
            rmoveto
            32 callsubr
            -101 46 hlineto
            -2 -1 -4 -4 -5 -5 -12 -12 -14 -14 -18 -10 rrcurveto
            -5 -9 -9 -3 -9 hhcurveto
            -27 -19 16 21 -12 hvcurveto
            -12 20 -6 27 23 vvcurveto
            return
          </CharString>
          <CharString index="19">
            rmoveto
            69 -90 rlineto
            -92 hlineto
            -31 35 -30 -35 rlineto
            -92 hlineto
            69 90 rlineto
            return
          </CharString>
          <CharString index="20">
            -101 547 101 -46 -88 callgsubr
            return
          </CharString>
          <CharString index="21">
            -82 callgsubr
            -83 callgsubr
            -46 callsubr
            endchar
          </CharString>
          <CharString index="22">
            hhcurveto
            -65 -32 -84 callgsubr
            16 39 35 -39 callsubr
            return
          </CharString>
          <CharString index="23">
            -77 callsubr
            -65 callgsubr
          </CharString>
          <CharString index="24">
            rmoveto
            -1 1 2 0 3 hhcurveto
            5 -1 25 -2 16 12 16 12 11 17 6 21 rrcurveto
            3 10 1 10 10 vvcurveto
            -93 563 rlineto
            99 hlineto
            40 -336 2 -28 rlineto
            4 hlineto
            2 28 40 336 rlineto
            99 hlineto
            -97 -588 -5 -39 -15 -38 -24 -29 rlinecurve
            -29 -24 -32 -20 -40 -3 -4 0 -5 hhcurveto
            -9 -12 1 1 -12 hvcurveto
            endchar
          </CharString>
          <CharString index="25">
            rmoveto
            -84 callsubr
          </CharString>
          <CharString index="26">
            -40 callgsubr
            17 13 2 7 21 vhcurveto
            -64 callsubr
            return
          </CharString>
          <CharString index="27">
            rmoveto
            -80 callgsubr
            return
          </CharString>
          <CharString index="28">
            -49 -21 -21 -49 -52 vvcurveto
            -7 1 -12 4 -11 vhcurveto
            -12 4 7 -9 12 hhcurveto
            23 19 14 19 hvcurveto
            endchar
          </CharString>
          <CharString index="29">
            -180 -97 callsubr
          </CharString>
          <CharString index="30">
            111 735 rlineto
            132 hlineto
            111 -735 rlineto
            -105 hlineto
            -20 150 rlineto
            -104 hlineto
            -20 -150 rlineto
            return
          </CharString>
          <CharString index="31">
            -74 callsubr
            endchar
          </CharString>
          <CharString index="32">
            -14 6 -15 3 -16 1 rrcurveto
            -15 -11 -4 -4 -11 hvcurveto
            -6 -3 -5 -2 -5 -3 rrcurveto
            return
          </CharString>
          <CharString index="33">
            rmoveto
            -22 -65 rlineto
            -51 hlineto
            20 65 rlineto
            -31 69 84 hlineto
            return
          </CharString>
          <CharString index="34">
            -9 -8 -12 -5 -12 -3 rrcurveto
            -2 -6 -7 -1 -7 hhcurveto
            -15 -15 3 6 -13 hvcurveto
            return
          </CharString>
          <CharString index="35">
            -94 callgsubr
            hintmask 10100000
            -73 callsubr
            hintmask 01100000
            -75 callsubr
            return
          </CharString>
          <CharString index="36">
            727 -88 callsubr
            return
          </CharString>
          <CharString index="37">
            -67 callsubr
            -247 hlineto
            return
          </CharString>
          <CharString index="38">
            vlineto
            20 -5 14 -11 21 callgsubr
            -9 3 -11 -5 callgsubr
            -5 -66 callgsubr
            -1 -10 rrcurveto
            return
          </CharString>
          <CharString index="39">
            15 callsubr
            -167 return
          </CharString>
          <CharString index="40">
            -111 -139 -193 100 -118 -100 -202 139 -111 return
          </CharString>
          <CharString index="41">
            rmoveto
            93 -98 -93 hlineto
            141 98 rmoveto
            93 -98 -93 hlineto
            return
          </CharString>
          <CharString index="42">
            727 -80 callsubr
            return
          </CharString>
          <CharString index="43">
            8 67 rlineto
            -5 -12 -13 -4 40 callgsubr
            -27 9 29 12 2 11 5 10 hvcurveto
            return
          </CharString>
          <CharString index="44">
            -4 -66 callgsubr
            return
          </CharString>
          <CharString index="45" raw="1">
            511d780b   
          </CharString>
          <CharString index="46">
            hlineto
            -17 -16 -15 -12 -19 -9 rrcurveto
            -5 -10 -10 -2 -9 hhcurveto
            -28 -19 16 21 -12 hvcurveto
            -13 20 -6 27 23 vvcurveto
            349 vlineto
            23 6 27 13 39 callsubr
            12 19 16 28 hhcurveto
            19 20 -11 -11 15 hvcurveto
            9 -7 8 -7 9 -8 rrcurveto
            return
          </CharString>
          <CharString index="47">
            vstem
            26 367 rmoveto
            104 42 94 68 68 vhcurveto
            68 68 94 42 103 hhcurveto
            104 94 -42 -68 68 hvcurveto
            68 -68 42 -94 -104 vvcurveto
            -103 -42 -94 -68 -68 vhcurveto
            -68 -68 -94 -42 -104 hhcurveto
            -103 -94 42 68 -68 hvcurveto
            -68 68 -42 94 103 vvcurveto
            58 hmoveto
            -87 36 -78 58 -58 vhcurveto
            -58 58 78 -36 87 hhcurveto
            87 80 36 58 58 hvcurveto
            58 58 35 78 87 vvcurveto
            87 -35 80 -58 58 vhcurveto
            58 -58 -80 35 -87 hhcurveto
            -87 -78 -35 -58 -58 hvcurveto
            -58 -58 -36 -80 -87 vvcurveto
            return
          </CharString>
          <CharString index="48">
            rmoveto
            -70 callgsubr
            return
          </CharString>
          <CharString index="49">
            rmoveto
            -31 callsubr
            -110 -422 rlineto
            -313 -108 313 vlineto
            -110 422 rlineto
            106 hlineto
            endchar
          </CharString>
          <CharString index="50">
            637 -78 callgsubr
            return
          </CharString>
          <CharString index="51">
            -90 rlineto
            -78 hlineto
            return
          </CharString>
          <CharString index="52">
            -60 callgsubr
            -224 -101 vlineto
            101 308 rmoveto
            -16 15 -17 -9 callgsubr
            -14 -19 vhcurveto
            endchar
          </CharString>
          <CharString index="53">
            -36 callgsubr
            -19 -8 -13 -15 return
          </CharString>
          <CharString index="54">
            37 21 4 36 11 hvcurveto
            5 17 4 26 1 35 rrcurveto
            1 35 0 47 0 60 0 60 0 47 35 flex1
            -1 34 -4 26 -5 18 rrcurveto
            35 -11 -21 4 -37 hhcurveto
            endchar
          </CharString>
          <CharString index="55">
            -59 callsubr
            endchar
          </CharString>
          <CharString index="56">
            735 85 vlineto
            -34 callsubr
            23 108 rmoveto
            -53 callsubr
          </CharString>
          <CharString index="57">
            rrcurveto
            15 17 25 7 return
          </CharString>
          <CharString index="58">
            rmoveto
            139 373 rlineto
            -117 92 224 -82 hlineto
            -139 -373 rlineto
            139 -92 -246 hlineto
            endchar
          </CharString>
          <CharString index="59">
            rmoveto
            52 -56 callsubr
            -79 90 rlineto
            return
          </CharString>
          <CharString index="60">
            rmoveto
            -9 34 rlineto
            -6 -417 -99 735 96 hlineto
            105 -383 9 -34 rlineto
            6 return
          </CharString>
          <CharString index="61">
            19 28 31 21 48 1 59 1 33 -22 17 -29 rrcurveto
            17 -29 3 -38 -31 vvcurveto
            return
          </CharString>
          <CharString index="62">
            111 202 118 193 return
          </CharString>
          <CharString index="63">
            rmoveto
            41 34 29 41 41 33 -29 -41 -41 -33 -29 -41 -41 -34 29 41 vhcurveto
            return
          </CharString>
          <CharString index="64">
            -45 callsubr
            111 return
          </CharString>
          <CharString index="65">
            rmoveto
            -561 vlineto
            -28 0 -44 -14 -36 vhcurveto
            -37 -14 -31 -29 -57 hhcurveto
            -16 -11 1 2 -7 hvcurveto
            -4 1 -3 1 -3 1 rrcurveto
            93 vlineto
            3 -1 3 0 3 -1 rrcurveto
            -1 7 6 -1 6 hhcurveto
            17 8 14 17 4 hvcurveto
            1 -5 callsubr
            9 9 0 8 6 vvcurveto
            560 vlineto
            endchar
          </CharString>
          <CharString index="66">
            19 -43 callsubr
            return
          </CharString>
          <CharString index="67">
            vstem
            295 hmoveto
            -101 36 -61 callsubr
            224 101 vlineto
            return
          </CharString>
          <CharString index="68">
            30 -50 callsubr
            33 hhcurveto
            return
          </CharString>
          <CharString index="69">
            -39 261 -5 31 rlineto
            -4 hlineto
            -5 -31 -39 -261 rlineto
            -84 hlineto
            -81 547 rlineto
            92 hlineto
            32 -286 4 36 callsubr
            5 31 42 286 rlineto
            60 hlineto
            42 -286 5 36 callsubr
            4 31 32 286 rlineto
            92 hlineto
            -81 -547 rlineto
            endchar
          </CharString>
          <CharString index="70">
            rmoveto
            -39 callgsubr
          </CharString>
          <CharString index="71">
            -18 callsubr
            131 624 rmoveto
            -47 callgsubr
          </CharString>
          <CharString index="72">
            -18 callsubr
            26 605 -48 callgsubr
            148 111 9 callsubr
          </CharString>
          <CharString index="73">
            100 54 -20 -56 29 hvcurveto
            28 -56 4 -92 -144 vvcurveto
            -144 -4 -91 -28 -56 vhcurveto
            -56 -29 -54 -20 -100 hhcurveto
            return
          </CharString>
          <CharString index="74">
            20 -12 -19 16 -27 hhcurveto
            -9 -8 -2 -5 -9 hvcurveto
            -18 -10 -15 -15 -11 -11 -6 -6 -4 -4 -2 -1 rrcurveto
            return
          </CharString>
          <CharString index="75">
            890 -80 callsubr
            return
          </CharString>
          <CharString index="76">
            3 -7 rlineto
            2 hlineto
            3 7 54 235 rlineto
            106 hlineto
            return
          </CharString>
          <CharString index="77">
            2 1 4 4 6 6 11 11 return
          </CharString>
          <CharString index="78">
            -14 callsubr
            hstem
            return
          </CharString>
          <CharString index="79">
            -65 callsubr
            253 hmoveto
            -80 callgsubr
            return
          </CharString>
          <CharString index="80">
            rmoveto
            101 -101 -101 hlineto
            return
          </CharString>
          <CharString index="81">
            -30 callgsubr
            82 6 callgsubr
            return
          </CharString>
          <CharString index="82">
            890 -48 callsubr
            return
          </CharString>
          <CharString index="83">
            rmoveto
            105 -21 callgsubr
            return
          </CharString>
          <CharString index="84">
            735 -27 callsubr
            return
          </CharString>
          <CharString index="85">
            547 90 hstem
            return
          </CharString>
          <CharString index="86">
            -456 -101 19 callgsubr
            -1 46 16 38 vhcurveto
            38 15 31 30 63 hhcurveto
            19 18 -1 -3 13 hvcurveto
            7 -1 8 -1 7 -1 rrcurveto
            return
          </CharString>
          <CharString index="87">
            -15 callsubr
            72 vstem
            return
          </CharString>
          <CharString index="88">
            7 callgsubr
            hlineto
            -81 callgsubr
          </CharString>
          <CharString index="89">
            17 494 1 callsubr
            return
          </CharString>
          <CharString index="90">
            -20 callgsubr
            40 247 vstem
            return
          </CharString>
          <CharString index="91">
            hvcurveto
            3 7 -33 callgsubr
            return
          </CharString>
          <CharString index="92">
            hstem
            141 return
          </CharString>
          <CharString index="93">
            0 735 return
          </CharString>
          <CharString index="94">
            hstemhm
            104 143 -119 60 hintmask 10100000
            return
          </CharString>
          <CharString index="95">
            -15 rrcurveto
            -16 return
          </CharString>
          <CharString index="96">
            9 -3 8 -4 6 vhcurveto
            3 -2 -3 1 -5 hhcurveto
            -11 -3 -7 -7 -3 hvcurveto
            -1 -4 -1 -4 1 -5 rrcurveto
            -213 vlineto
            return
          </CharString>
          <CharString index="97">
            rmoveto
            111 312 -111 -102 -624 -108 624 vlineto
            return
          </CharString>
          <CharString index="98">
            -15 -15 -12 -14 -19 vhcurveto
            -307 vlineto
            -19 12 -14 15 15 15 return
          </CharString>
          <CharString index="99">
            -18 -25 -7 return
          </CharString>
          <CharString index="100">
            -308 rmoveto
            16 -15 17 -9 callsubr
            14 19 vhcurveto
            endchar
          </CharString>
          <CharString index="101">
            -5 5 7 -3 9 hhcurveto
            return
          </CharString>
          <CharString index="102">
            8 1 9 return
          </CharString>
          <CharString index="103">
            rmoveto
            -84 -320 11 callgsubr
            108 -304 84 304 -39 callgsubr
          </CharString>
          <CharString index="104">
            20 159 248 148 82 hstem
            112 82 vstem
            return
          </CharString>
          <CharString index="105">
            -41 callgsubr
            253 hmoveto
            -80 callgsubr
            95 return
          </CharString>
          <CharString index="106">
            vstem
            40 hmoveto
            735 101 -735 vlineto
            return
          </CharString>
          <CharString index="107">
            10.5 return
          </CharString>
          <CharString index="108">
            241 hstem
            131 43 vstem
            return
          </CharString>
          <CharString index="109">
            735 90 hstem
            return
          </CharString>
          <CharString index="110">
            3 -9 hhcurveto
            return
          </CharString>
          <CharString index="111">
            -29 rrcurveto
            -15 -8 callsubr
            -33 hhcurveto
            return
          </CharString>
          <CharString index="112">
            hstem
            136 57 vstem
            return
          </CharString>
          <CharString index="113">
            26 callsubr
            -21 return
          </CharString>
          <CharString index="114">
            735 65 hstem
            return
          </CharString>
          <CharString index="115">
            196 -67 callgsubr
            return
          </CharString>
          <CharString index="116">
            -48 callgsubr
            endchar
          </CharString>
          <CharString index="117">
            -29 callsubr
            148 return
          </CharString>
          <CharString index="118">
            1 -21 6 return
          </CharString>
          <CharString index="119">
            21 -16 3 -11 -11 -9 -6 -7 -7 vhcurveto
            -4 -4 -4 -4 -3 -5 rrcurveto
            return
          </CharString>
          <CharString index="120">
            -15 callsubr
            79 vstem
            return
          </CharString>
          <CharString index="121">
            21 18 vhcurveto
            9 10 15 4 20 hhcurveto
            39 17 -22 -21 11 hvcurveto
            6 return
          </CharString>
          <CharString index="122">
            -64 callgsubr
            -159 return
          </CharString>
          <CharString index="123">
            78 7 callsubr
            32 callgsubr
            vstem
            return
          </CharString>
          <CharString index="124">
            vstem
            40 735 -25 callgsubr
            return
          </CharString>
          <CharString index="125">
            241 hstem
            22 105 vstem
            127 return
          </CharString>
          <CharString index="126">
            35 callgsubr
            272 return
          </CharString>
          <CharString index="127">
            -15 callsubr
            29 vstem
            return
          </CharString>
          <CharString index="128">
            -17 callgsubr
            21 return
          </CharString>
          <CharString index="129">
            9 hhcurveto
            19 return
          </CharString>
          <CharString index="130">
            -5 callgsubr
            -63 callsubr
            -10 vvcurveto
            return
          </CharString>
          <CharString index="131">
            vhcurveto
            -15 -4 -9 -12 -19 hhcurveto
            -9 -7 3 5 -5 hvcurveto
            return
          </CharString>
          <CharString index="132">
            73 735 90 20 callgsubr
            hintmask 10100000
            return
          </CharString>
          <CharString index="133">
            -433 vlineto
            return
          </CharString>
          <CharString index="134">
            211 36 callgsubr
            127 245 vstem
            return
          </CharString>
          <CharString index="135">
            -20 -17 rrcurveto
            -9 -10 -15 -4 -19 hhcurveto
            -40 -18 return
          </CharString>
          <CharString index="136">
            hlineto
            -29 -214 rlineto
            -96 hlineto
            29 214 rlineto
            return
          </CharString>
          <CharString index="137">
            vstem
            40 8 callgsubr
            return
          </CharString>
          <CharString index="138">
            58 252 231 return
          </CharString>
          <CharString index="139">
            101 -547 return
          </CharString>
          <CharString index="140">
            229 85 542 hstem
            36 445 vstem
            return
          </CharString>
          <CharString index="141">
            hstem
            40 101 57 101 vstem
            return
          </CharString>
          <CharString index="142">
            -8 37 callgsubr
            return
          </CharString>
          <CharString index="143">
            -31 rlineto
            6 hlineto
            return
          </CharString>
          <CharString index="144">
            -584 vlineto
            return
          </CharString>
          <CharString index="145">
            vhcurveto
            5 -5 return
          </CharString>
          <CharString index="146">
            21 vhcurveto
            20 return
          </CharString>
          <CharString index="147">
            -19 -36 -31 -65 hhcurveto
            -67 -34 31 return
          </CharString>
          <CharString index="148">
            111 -24 callsubr
            return
          </CharString>
          <CharString index="149">
            hstem
            139 57 vstem
            return
          </CharString>
          <CharString index="150">
            vvcurveto
            194 vlineto
            return
          </CharString>
          <CharString index="151">
            -3 -4 -3 return
          </CharString>
        <CharString name=".notdef">
          -134 endchar
        </CharString>
        <CharString name="A">
          86 0 735 -16 callgsubr
          10 hmoveto
          -84 callsubr
        </CharString>
        <CharString name="AE">
          249 38 callgsubr
          192 78 vstem
          270 150 rmoveto
          -111 hlineto
          -44 -150 rlineto
          -107 hlineto
          205 735 rlineto
          304 -70 callsubr
          -78 264 rmoveto
          78 251 -5 hlineto
          endchar
        </CharString>
        <CharString name="Aacute">
          1 callgsubr
          300 -32 callsubr
          -185 -890 -82 callsubr
        </CharString>
        <CharString name="Abreve">
          86 735 89 -16 callgsubr
          298 -86 callgsubr
          -236 -917 -82 callsubr
        </CharString>
        <CharString name="Acircumflex">
          1 callgsubr
          241 -43 callgsubr
          -124 -890 -82 callsubr
        </CharString>
        <CharString name="Adieresis">
          86 735 65 hstemhm
          163 48 -28.5 9 hintmask 11000000
          70 -44 callgsubr
          -201 -800 -7 callgsubr
          hintmask 10100000
          -65 callgsubr
        </CharString>
        <CharString name="Agrave">
          1 callgsubr
          174 -25 callsubr
          -59 -890 -82 callsubr
        </CharString>
        <CharString name="Amacron">
          86 735 95 -16 callgsubr
          91 -12 callgsubr
          -81 -830 -82 callsubr
        </CharString>
        <CharString name="Aogonek">
          86 39 callgsubr
          271 114 251 220 hstem
          203 69 vstem
          364 hmoveto
          -111 735 rlineto
          -132 hlineto
          -111 -735 rlineto
          105 hlineto
          20 150 rlineto
          104 hlineto
          20 -150 rlineto
          10 -34 callgsubr
          -167 264 rmoveto
          31 232 3 19 rlineto
          6 hlineto
          3 -19 31 -232 rlineto
          endchar
        </CharString>
        <CharString name="Aring">
          86 735 55 35 70 hstemhm
          151 74 -42.5 9 hintmask 10010000
          113 860 -51 callgsubr
          -141 -860 -7 callgsubr
          hintmask 10010000
          -65 callgsubr
        </CharString>
        <CharString name="Atilde">
          86 735 59 -16 callgsubr
          90 871 -100 callgsubr
          -80 -797 -82 callsubr
        </CharString>
        <CharString name="B">
          76 10 callsubr
          80 vstem
          40 hmoveto
          735 95 vlineto
          64 50 -12 -31 33 hvcurveto
          33 -31 17 -48 -73 vvcurveto
          -35 -3 -26 -11 -24 vhcurveto
          -11 -24 -17 -20 -25 -23 27 -15 20 -28 16 -47 rrcurveto
          8 -23 4 -30 -37 vvcurveto
          -55 -10 -49 -25 -38 vhcurveto
          -25 -38 -43 -25 -64 -3 rrcurveto
          -25 432 rmoveto
          9 21 -1 12 18 hvcurveto
          18 12 14 24 51 vvcurveto
          51 -14 24 -18 12 vhcurveto
          12 -18 -21 -1 -9 hhcurveto
          -521 vmoveto
          9 21 -2 13 18 hvcurveto
          18 13 14 29 60 vvcurveto
          60 -14 29 -18 13 vhcurveto
          13 -18 -21 -2 -9 hhcurveto
          endchar
        </CharString>
        <CharString name="C">
          31 callsubr
          13 callsubr
          321 252 -103 callsubr
          endchar
        </CharString>
        <CharString name="Cacute">
          -2 callgsubr
          253 -41 callgsubr
          173 -663 -103 callsubr
          endchar
        </CharString>
        <CharString name="Ccaron">
          -2 callgsubr
          121 -54 callgsubr
          93 -573 -103 callsubr
          endchar
        </CharString>
        <CharString name="Ccedilla">
          58 -54 46 260 231 13 callsubr
          321 252 -103 callsubr
          -5 -375 -76 callsubr
        </CharString>
        <CharString name="Ccircumflex">
          -2 callgsubr
          228 -57 callgsubr
          200 -663 -103 callsubr
          endchar
        </CharString>
        <CharString name="Cdotaccent">
          31 callsubr
          260 79 13 callsubr
          124 2 callgsubr
          197 -570 -103 callsubr
          endchar
        </CharString>
        <CharString name="D">
          84 10 callsubr
          79 vstem
          40 hmoveto
          -51 callsubr
        </CharString>
        <CharString name="Dcaron">
          84 2 callsubr
          148 79 vstem
          134 -54 callgsubr
          -201 -825 rmoveto
          -51 callsubr
        </CharString>
        <CharString name="Dcroat">
          84 0 108 223 79 217 108 hstem
          40 108 79 113 30 callsubr
          -325 -59 -79 59 -331 85 vlineto
          100 54 20 56 29 hvcurveto
          28 56 4 91 144 vvcurveto
          144 -4 92 -28 56 vhcurveto
          56 -29 -54 20 -100 hhcurveto
          23 -404 rmoveto
          27 79 -27 217 hlineto
          37 21 -4 -35 11 hvcurveto
          5 -18 4 -26 1 -34 rrcurveto
          1 -35 0 -47 0 -60 0 -60 0 -47 -35 flex1
          -1 -35 -4 -26 -5 -17 rrcurveto
          -36 -11 -21 -4 -37 hhcurveto
          endchar
        </CharString>
        <CharString name="E">
          19 38 callgsubr
          40 247 vstem
          40 735 -72 callgsubr
        </CharString>
        <CharString name="Eacute">
          -17 callsubr
          272 -32 callsubr
          -127 -155 -72 callgsubr
        </CharString>
        <CharString name="Ebreve">
          -41 callsubr
          89 hstem
          40 247 vstem
          265 -86 callgsubr
          -173 -182 -72 callgsubr
        </CharString>
        <CharString name="Ecaron">
          -41 callsubr
          90 hstem
          32 255 vstem
          101 -54 callgsubr
          -168 -90 -72 callgsubr
        </CharString>
        <CharString name="Ecircumflex">
          -17 callsubr
          217 -43 callgsubr
          -70 -155 -72 callgsubr
        </CharString>
        <CharString name="Edieresis">
          -20 callgsubr
          139 48 vstem
          46 -44 callgsubr
          -147 -65 -72 callgsubr
        </CharString>
        <CharString name="Edotaccent">
          -41 callsubr
          87 hstem
          40 247 vstem
          104 2 callgsubr
          -64 -87 -72 callgsubr
        </CharString>
        <CharString name="Egrave">
          -17 callsubr
          159 -25 callsubr
          -14 -155 -72 callgsubr
        </CharString>
        <CharString name="Emacron">
          -41 callsubr
          95 hstem
          40 247 vstem
          58 -12 callgsubr
          -18 -95 -72 callgsubr
        </CharString>
        <CharString name="Eng">
          107 -122 857 -856 101 hstemhm
          40 99 117 99 hintmask 10110000
          256 8 callgsubr
          -417 -6 vlineto
          -9 34 -105 383 rlineto
          -96 -735 99 417 6 hlineto
          9 -34 rlineto
          hintmask 01110000
          105 -383 rlineto
          1 hlineto
          -1 -1 0 -1 -1 -1 -10 -15 -15 -5 -17 3 rrcurveto
          -101 vlineto
          53 -4 36 16 21 25 18 22 9 30 2 32 rrcurveto
          735 vlineto
          endchar
        </CharString>
        <CharString name="Eogonek">
          19 39 callgsubr
          121 -43 callsubr
          hstemhm
          40 108 -21 69 hintmask 11111000
          287 hmoveto
          111 -139 202 100 118 -100 193 139 111 -247 -735 vlineto
          hintmask 11110100
          153 -34 callgsubr
          endchar
        </CharString>
        <CharString name="Eth">
          84 -14 callsubr
          -627 212 111 196 hstemhm
          189 38 hintmask 10010000
          10 431 rmoveto
          30 304 85 hlineto
          -34 callsubr
          -85 320 -30 hlineto
          hintmask 01110000
          138 111 rmoveto
          41 -111 -41 -212 hlineto
          -53 callsubr
        </CharString>
        <CharString name="Euro">
          109 192 75 67 67 67 75 hstem
          186 79 vstem
          26 468 rmoveto
          52 116 hlineto
          -103 callgsubr
          -41 -101 41 -69 callsubr
          -116 114 -67 -114 -67 114 -67 -114 -116 -68 callgsubr
          41 101 -41 -93 callsubr
          116 -52 67 52 67 -52 vlineto
          endchar
        </CharString>
        <CharString name="F">
          13 431 193 hstem
          40 257 vstem
          297 624 rmoveto
          -149 -193 100 -111 -100 -320 11 callgsubr
          257 hlineto
          endchar
        </CharString>
        <CharString name="G">
          35 callgsubr
          20 callsubr
          213 471 -99 callgsubr
          endchar
        </CharString>
        <CharString name="Gbreve">
          19 callsubr
          81 20 callsubr
          291 -86 callgsubr
          -26 -446 -99 callgsubr
          endchar
        </CharString>
        <CharString name="Gcircumflex">
          19 callsubr
          82 20 callsubr
          235 -57 callgsubr
          85 -444 -99 callgsubr
          endchar
        </CharString>
        <CharString name="Gcommaaccent">
          72 -54 46 96 187 91 105 20 callsubr
          213 471 -99 callgsubr
          -106 -594 -76 callsubr
        </CharString>
        <CharString name="Gdotaccent">
          19 callsubr
          79 20 callsubr
          131 2 callgsubr
          82 -351 -99 callgsubr
          endchar
        </CharString>
        <CharString name="H">
          92 10 callsubr
          84 vstem
          232 320 -4 callsubr
        </CharString>
        <CharString name="Hbar">
          92 320 111 117 79 hstem
          40 108 84 108 vstem
          380 627 rmoveto
          -40 108 -108 -108 -84 108 -108 -108 -39 -79 39 -548 108 320 84 -320 108 548 40 hlineto
          -148 -117 rmoveto
          -84 117 84 hlineto
          endchar
        </CharString>
        <CharString name="Hcircumflex">
          92 2 callsubr
          148 84 vstem
          245 -57 callgsubr
          94 -595 -4 callsubr
        </CharString>
        <CharString name="I">
          -100 -29 callsubr
          40 108 vstem
          40 735 -37 callsubr
        </CharString>
        <CharString name="IJ">
          107 35 callsubr
          148 104 30 callsubr
          108 -735 -108 hlineto
          154 99 -45 callgsubr
        </CharString>
        <CharString name="Iacute">
          -92 7 callsubr
          40 159 vstem
          199 -32 callsubr
          -54 -155 -37 callsubr
        </CharString>
        <CharString name="Ibreve">
          -100 735 89 hstem
          -15 220 vstem
          205 -86 callgsubr
          -113 -182 -37 callsubr
        </CharString>
        <CharString name="Icircumflex">
          -107 7 callsubr
          -32 245 vstem
          144 -43 callgsubr
          -1 -155 -37 callsubr
        </CharString>
        <CharString name="Idieresis">
          -106 7 callsubr
          67 48 vstem
          -26 -44 callgsubr
          -78 -65 -37 callsubr
        </CharString>
        <CharString name="Idotaccent">
          -100 735 87 hstem
          40 108 vstem
          45 2 callgsubr
          -5 -87 -37 callsubr
        </CharString>
        <CharString name="Igrave">
          -92 7 callsubr
          -3 159 vstem
          102 -25 callsubr
          51 -155 -37 callsubr
        </CharString>
        <CharString name="Imacron">
          -100 735 95 hstem
          -2 194 vstem
          -2 -12 callgsubr
          42 -95 -37 callsubr
        </CharString>
        <CharString name="Iogonek">
          -100 39 callgsubr
          hstemhm
          -12 69 -17 108 hintmask 10100000
          148 hmoveto
          735 -108 -735 vlineto
          hintmask 11000000
          14 hlineto
          -71 callgsubr
          hintmask 10100000
          4 callgsubr
        </CharString>
        <CharString name="Itilde">
          -100 735 87 hstem
          -2 194 vstem
          -2 899 -100 callgsubr
          42 -90 -37 callsubr
        </CharString>
        <CharString name="J">
          -81 35 callsubr
          6 166 vstem
          6 99 -45 callgsubr
        </CharString>
        <CharString name="Jcircumflex">
          -81 2 callsubr
          -18 245 vstem
          158 -57 callgsubr
          -45 -816 -45 callgsubr
        </CharString>
        <CharString name="K">
          87 -14 callsubr
          -42 callgsubr
          endchar
        </CharString>
        <CharString name="Kcommaaccent">
          87 -54 54 -42 callgsubr
          175 -858 -76 callsubr
        </CharString>
        <CharString name="L">
          7 -29 callsubr
          40 251 17 callsubr
          endchar
        </CharString>
        <CharString name="Lacute">
          7 2 callsubr
          40 251 vstem
          227 -41 callgsubr
          -82 -180 -25 callgsubr
          endchar
        </CharString>
        <CharString name="Lcaron">
          7 0 848 hstem
          148 36 vstem
          289 737 -59 callsubr
          -249 -113 -25 callgsubr
          endchar
        </CharString>
        <CharString name="Lcommaaccent">
          7 -54 54 hstem
          40 251 17 callsubr
          175 -123 -76 callsubr
        </CharString>
        <CharString name="Ldot">
          7 100 229 hstem
          148 38 17 callsubr
          146 440 -8 callgsubr
        </CharString>
        <CharString name="Lslash">
          19 -29 callsubr
          20 283 vstem
          20 382 rmoveto
          32 25 rlineto
          328 108 -244 vlineto
          59 46 rlineto
          -108 vlineto
          -59 -46 rlineto
          -283 143 -100 -251 299 vlineto
          -32 -25 rlineto
          endchar
        </CharString>
        <CharString name="M">
          196 -29 callsubr
          140 8 90.5 7 90.5 8 vstem
          219 hmoveto
          -69 462 -4 31 rlineto
          -6 -493 -100 735 132 hlineto
          64 -336 5 -39 rlineto
          2 hlineto
          5 39 64 336 rlineto
          132 -735 -100 493 -6 hlineto
          -4 -31 -69 -462 rlineto
          endchar
        </CharString>
        <CharString name="N">
          107 -29 callsubr
          139 117 vstem
          154 383 -50 callgsubr
          endchar
        </CharString>
        <CharString name="Nacute">
          34 callgsubr
          277 -41 callgsubr
          -18 -532 -50 callgsubr
          endchar
        </CharString>
        <CharString name="Ncaron">
          34 callgsubr
          145 -54 callgsubr
          -98 -442 -50 callgsubr
          endchar
        </CharString>
        <CharString name="Ncommaaccent">
          107 -54 54 hstem
          139 117 vstem
          154 383 -50 callgsubr
          -44 -123 -76 callsubr
        </CharString>
        <CharString name="Ntilde">
          107 735 59 -59 78 hstemhm
          139 117 hintmask 01100000
          101 871 -72 callsubr
          53 -414 -47 callsubr
          hlineto
          hintmask 10100000
          417 99 -735 -96 vlineto
          endchar
        </CharString>
        <CharString name="O">
          -69 callgsubr
        </CharString>
        <CharString name="OE">
          192 38 callgsubr
          141 72 vstem
          177 hmoveto
          -36 -28 10 14 -19 callgsubr
          14 -13 18 -9 19 -11 22 -6 25 -1 29 rrcurveto
          -17 callgsubr
          1 28 6 25 11 22 9 19 13 20 20 14 rrcurveto
          14 20 28 9 36 hhcurveto
          283 -67 callsubr
          hlineto
          -247 591 rmoveto
          7 -2 12 -5 10 vhcurveto
          10 -5 -9 8 -15 -95 callsubr
        </CharString>
        <CharString name="Oacute">
          17 callgsubr
          296 -32 callsubr
          130 -739 -106 callgsubr
        </CharString>
        <CharString name="Obreve">
          66 743 81 -20 callsubr
          288 -86 callgsubr
          85 -766 -106 callgsubr
        </CharString>
        <CharString name="Ocircumflex">
          17 callgsubr
          231 -43 callgsubr
          197 -739 -106 callgsubr
        </CharString>
        <CharString name="Odieresis">
          66 743 57 hstemhm
          141 72 -60 48 hintmask 10100000
          60 -44 callgsubr
          120 -649 rmoveto
          -96 callgsubr
          hintmask 11000000
          -98 callgsubr
        </CharString>
        <CharString name="Ograve">
          17 callgsubr
          164 -25 callsubr
          262 -739 -106 callgsubr
        </CharString>
        <CharString name="Ohungarumlaut">
          66 743 82 -20 callsubr
          183 -2 callsubr
          -764 -106 callgsubr
        </CharString>
        <CharString name="Omacron">
          66 743 87 -20 callsubr
          81 -12 callgsubr
          240 -679 -106 callgsubr
        </CharString>
        <CharString name="Oslash">
          66 -10 755 -20 callsubr
          29 -10 rmoveto
          23 77 -11 20 -3 21 -3 16 rlinecurve
          -1 9 -1 9 9 vvcurveto
          -17 callgsubr
          -94 callsubr
          32 25 -8 -13 20 hvcurveto
          7 23 rlineto
          60 hlineto
          -22 -73 11 -21 5 -22 3 -17 rlinecurve
          2 -10 1 -9 -9 vvcurveto
          26 callsubr
          -77 callgsubr
          -33 -26 8 13 -19 hvcurveto
          -7 -23 rlineto
          49 365 rmoveto
          72 234 rlineto
          5 -2 12 -4 12 vhcurveto
          11 -5 -9 9 -16 23 callsubr
          72 -195 rmoveto
          -72 -238 rlineto
          -101 callgsubr
          endchar
        </CharString>
        <CharString name="Otilde">
          66 743 51 -20 callsubr
          80 871 -100 callgsubr
          241 -646 -106 callgsubr
        </CharString>
        <CharString name="P">
          64 26 callgsubr
          108 -4 callgsubr
          -294 -108 vlineto
          108 404 -10 callgsubr
        </CharString>
        <CharString name="Q">
          68 -56 799 -20 callsubr
          321 151 rmoveto
          -17 -3 -19 -6 -21 vhcurveto
          -3 -11 -5 -10 -5 -11 9 -12 13 -10 21 -4 rrcurveto
          -92 vlineto
          -61 -31 26 31 -19 hvcurveto
          -5 -15 -18 -4 -21 -106 callsubr
        </CharString>
        <CharString name="R">
          73 -14 callsubr
          20 callgsubr
          hintmask 11000000
          233 hmoveto
          -74 callgsubr
          endchar
        </CharString>
        <CharString name="Racute">
          25 callsubr
          260 -41 callgsubr
          hintmask 11000000
          78 -915 rmoveto
          -74 callgsubr
          endchar
        </CharString>
        <CharString name="Rcaron">
          25 callsubr
          128 -54 callgsubr
          hintmask 11000000
          -2 -825 rmoveto
          -74 callgsubr
          endchar
        </CharString>
        <CharString name="Rcommaaccent">
          73 -54 54 20 callgsubr
          hintmask 11000000
          233 hmoveto
          -74 callgsubr
          67 -751 -76 callsubr
        </CharString>
        <CharString name="S">
          55 -8 751 -6 callgsubr
          219 538 -101 callsubr
          endchar
        </CharString>
        <CharString name="Sacute">
          55 743 82 -6 callgsubr
          251 -41 callgsubr
          73 -377 -101 callsubr
          endchar
        </CharString>
        <CharString name="Scaron">
          55 743 57 -6 callgsubr
          118 800 -78 callgsubr
          -6 -262 -101 callsubr
          endchar
        </CharString>
        <CharString name="Scedilla">
          55 -54 46 -6 callgsubr
          219 538 -101 callsubr
          -110 -671 -76 callsubr
        </CharString>
        <CharString name="Scircumflex">
          55 743 82 -6 callgsubr
          226 -57 callgsubr
          100 -377 -101 callsubr
          endchar
        </CharString>
        <CharString name="T">
          28 -29 callsubr
          2 312 vstem
          2 624 -10 callsubr
          endchar
        </CharString>
        <CharString name="Tbar">
          28 471 79 74 111 hstem
          104 108 vstem
          314 624 rmoveto
          111 -312 -111 102 -74 -39 -79 39 -471 108 471 47 79 -47 74 vlineto
          endchar
        </CharString>
        <CharString name="Tcaron">
          28 2 callsubr
          2 312 vstem
          106 -54 callgsubr
          -211 -201 -10 callsubr
          endchar
        </CharString>
        <CharString name="Thorn">
          66 26 callgsubr
          107 -118 1 -4 callgsubr
          -176 -108 vlineto
          108 286 -10 callgsubr
        </CharString>
        <CharString name="U">
          78 35 callsubr
          32 callgsubr
          vstem
          327 735 -96 callsubr
        </CharString>
        <CharString name="Uacute">
          16 callsubr
          307 -32 callsubr
          125 -155 -96 callsubr
        </CharString>
        <CharString name="Ubreve">
          78 735 89 hstem
          32 callgsubr
          vstem
          294 -86 callgsubr
          85 -182 -96 callsubr
        </CharString>
        <CharString name="Ucircumflex">
          16 callsubr
          237 -43 callgsubr
          197 -155 -96 callsubr
        </CharString>
        <CharString name="Udieresis">
          78 735 65 hstemhm
          32 callgsubr
          -60 48 hintmask 10100000
          66 -44 callgsubr
          120 -65 -92 callsubr
          33 callgsubr
          hintmask 11000000
          -19 callsubr
        </CharString>
        <CharString name="Ugrave">
          16 callsubr
          176 -25 callsubr
          256 -155 -96 callsubr
        </CharString>
        <CharString name="Uhungarumlaut">
          78 2 callsubr
          32 callgsubr
          vstem
          189 -2 callsubr
          -180 -96 callsubr
        </CharString>
        <CharString name="Umacron">
          78 735 95 hstem
          32 callgsubr
          vstem
          87 -12 callgsubr
          240 -95 -96 callsubr
        </CharString>
        <CharString name="Uogonek">
          78 39 callgsubr
          113 8 hstemhm
          39 108 21 69 -18 108 hintmask 11101000
          235 hmoveto
          12 4 10 6 9 7 20 15 14 19 9 20 11 23 6 27 1 30 rrcurveto
          584 -108 37 callsubr
          -11 -1 -9 -3 -7 24 callsubr
          -10 11 -5 14 21 vvcurveto
          584 -108 37 callsubr
          1 -30 6 -27 11 -23 rrcurveto
          hintmask 11110000
          9 -20 13 -19 20 -12 callsubr
          20 28 -9 36 hhcurveto
          19 17 3 4 14 hvcurveto
          -13 -9 -10 -10 -75 callgsubr
          hintmask 11101000
          4 callgsubr
        </CharString>
        <CharString name="Uring">
          78 735 77 35 70 hstemhm
          32 callgsubr
          -71 74 hintmask 10100000
          110 882 -44 callsubr
          hintmask 11010000
          -46 callgsubr
          179 -147 -92 callsubr
          33 callgsubr
          hintmask 10100000
          -19 callsubr
        </CharString>
        <CharString name="Utilde">
          78 735 87 -87 106 hstemhm
          32 callgsubr
          hintmask 01100000
          87 899 -72 callsubr
          hintmask 10100000
          240 -90 -92 callsubr
          hintmask 01100000
          584 7 callgsubr
          -100 callsubr
          hintmask 10100000
          33 callgsubr
          endchar
        </CharString>
        <CharString name="V">
          62 -29 callsubr
          170 10 vstem
          236 8 callgsubr
          105 hlineto
          -112 -735 rlineto
          -108 hlineto
          -112 735 rlineto
          105 hlineto
          54 -404 4 36 callsubr
          4 31 rlineto
          endchar
        </CharString>
        <CharString name="W">
          218 -29 callsubr
          156 0 callsubr
          30 callgsubr
          10 30 callgsubr
          0 callsubr
          vstem
          195 hmoveto
          -37 callgsubr
        </CharString>
        <CharString name="Wcircumflex">
          218 2 callsubr
          156 0 callsubr
          30 callgsubr
          10 30 callgsubr
          0 callsubr
          vstem
          306 -57 callgsubr
          -4 -915 rmoveto
          -37 callgsubr
        </CharString>
        <CharString name="X">
          72 -14 callsubr
          hstemhm
          8 344 -175.5 7 hintmask 11000000
          114 hmoveto
          -106 hlineto
          119 386 -117 349 rlineto
          hintmask 10100000
          106 hlineto
          59 -186 3 -9 rlineto
          4 hlineto
          3 9 59 186 rlineto
          106 hlineto
          -117 -349 119 -386 rlineto
          -106 hlineto
          -62 219 -2 9 rlineto
          -4 hlineto
          -2 -9 rlineto
          endchar
        </CharString>
        <CharString name="Y">
          54 -29 callsubr
          7 328 vstem
          167 500 -58 callsubr
        </CharString>
        <CharString name="Yacute">
          56 7 callsubr
          8 328 vstem
          281 -32 callsubr
          -8 -390 -58 callsubr
        </CharString>
        <CharString name="Ycircumflex">
          54 2 callsubr
          7 328 vstem
          226 -57 callgsubr
          48 -415 -58 callsubr
        </CharString>
        <CharString name="Ydieresis">
          56 7 callsubr
          148 48 vstem
          55 -44 callgsubr
          -28 -300 -58 callsubr
        </CharString>
        <CharString name="Z">
          18 -29 callsubr
          10 44 callgsubr
          10 116 -49 callgsubr
        </CharString>
        <CharString name="Zacute">
          18 2 callsubr
          10 44 callgsubr
          233 -41 callgsubr
          -118 -799 -49 callgsubr
        </CharString>
        <CharString name="Zcaron">
          18 7 callsubr
          10 44 callgsubr
          112 800 -78 callgsubr
          -209 -684 -49 callgsubr
        </CharString>
        <CharString name="Zdotaccent">
          18 735 87 hstem
          10 44 callgsubr
          104 2 callgsubr
          -94 -706 -49 callgsubr
        </CharString>
        <CharString name="a">
          35 -8 563 5 callsubr
          193 417 -107 callgsubr
        </CharString>
        <CharString name="aacute">
          16 callgsubr
          286 -65 callsubr
          12 -310 -107 callgsubr
        </CharString>
        <CharString name="abreve">
          45 555 81 5 callsubr
          278 -90 callsubr
          -33 -312 -107 callgsubr
        </CharString>
        <CharString name="acircumflex">
          16 callgsubr
          220 -71 callsubr
          80 -310 -107 callgsubr
        </CharString>
        <CharString name="acute">
          212 36 callgsubr
          200 157 vstem
          357 -65 callsubr
          endchar
        </CharString>
        <CharString name="adieresis">
          45 555 82 hstemhm
          136 57 -50 48 hintmask 10100000
          50 -53 callgsubr
          hintmask 11000000
          2 -220 -107 callgsubr
        </CharString>
        <CharString name="ae">
          195 -27 callgsubr
          hstem
          136 57 94 73 vstem
          454 8 callsubr
          -61 -32 31 33 -17 hvcurveto
          -36 -28 -36 -28 -44 -85 callgsubr
          60 vlineto
          -92 callgsubr
          27 25 -8 -17 22 hvcurveto
          15 19 25 10 35 -102 callsubr
          -94 -147 rmoveto
          -79 callsubr
        </CharString>
        <CharString name="agrave">
          16 callgsubr
          155 -32 callgsubr
          143 -310 -107 callgsubr
        </CharString>
        <CharString name="amacron">
          45 555 87 5 callsubr
          71 -23 callgsubr
          122 -225 -107 callgsubr
        </CharString>
        <CharString name="ampersand">
          129 -8 751 hstem
          149 76 vstem
          397 319 rmoveto
          -1 -13 -3 -29 -7 -32 -7 -32 -11 -37 -16 -32 11 -12 9 -9 8 -5 8 -6 6 -4 3 -1 rrcurveto
          -115 vlineto
          -3 -4 1 3 -7 hvcurveto
          -13 5 -19 12 -23 17 -11 8 -11 10 -11 12 rrcurveto
          -41 -36 -42 -27 -45 hhcurveto
          -43 -37 19 30 -26 hvcurveto
          -26 30 -16 39 44 vvcurveto
          83 42 67 41 63 vhcurveto
          -35 72 -17 67 77 vvcurveto
          1 60 17 42 36 33 rrcurveto
          17 18 26 8 34 hhcurveto
          68 32 -40 -40 15 hvcurveto
          17 -47 7 -63 -38 -71 -19 -36 -24 -37 -29 -38 32 -73 21 -38 19 -28 13 37 7 49 3 17 rrcurveto
          -86 251 rmoveto
          1 25 -4 20 -11 15 rrcurveto
          7 -5 -8 4 -11 hhcurveto
          -21 -10 -18 -19 -4 hvcurveto
          -5 -23 0 -36 9 -37 4 -19 7 -20 9 -22 rrcurveto
          24 37 25 47 39 vvcurveto
          13 -458 rmoveto
          -27 43 -27 44 -31 57 -11 -17 -6 -20 -5 -28 -5 -29 -1 -44 18 -27 rrcurveto
          -14 9 11 -7 14 hhcurveto
          27 15 18 24 19 hvcurveto
          endchar
        </CharString>
        <CharString name="aogonek">
          45 39 callgsubr
          165 47 295 169 hstemhm
          24 99 -88 101 5 69 -17 101 hintmask 11101010
          301 hmoveto
          -4 24 -3 22 49 vvcurveto
          336 vlineto
          36 -14 31 -23 22 vhcurveto
          22 -23 -30 13 -33 hhcurveto
          -39 -34 -16 -27 -24 hvcurveto
          -24 -27 -15 -36 -40 vvcurveto
          -23 101 vlineto
          8 0 9 9 vvcurveto
          9 1 9 1 8 vhcurveto
          16 3 7 13 17 hhcurveto
          13 8 -7 -10 4 hvcurveto
          3 -10 0 -14 -9 vvcurveto
          -60 vlineto
          -4 -11 -19 -9 -25 -13 rrcurveto
          hintmask 11110010
          -25 -13 -30 -19 -24 -30 rrcurveto
          -24 -30 -18 -44 -61 vvcurveto
          -57 14 -34 17 -19 vhcurveto
          -20 16 21 -5 13 hhcurveto
          20 19 8 11 14 hvcurveto
          14 11 9 13 5 9 rrcurveto
          7 hlineto
          -7 0 -26 9 -11 vhcurveto
          5 hlineto
          hintmask 11100100
          -71 callgsubr
          hintmask 11110010
          -22 callgsubr
          -62 124 rmoveto
          -19 -19 -14 -23 -12 -7 9 12 -4 vhcurveto
          -4 11 -1 12 7 vvcurveto
          52 21 49 49 21 vhcurveto
          endchar
        </CharString>
        <CharString name="aring">
          45 555 69 35 70 hstemhm
          130 74 -68 57 hintmask 11010000
          92 694 -51 callgsubr
          hintmask 11010000
          63 -277 -107 callgsubr
        </CharString>
        <CharString name="asciicircum">
          250 395 340 hstem
          26 486 vstem
          326 8 callgsubr
          186 -340 rlineto
          -97 hlineto
          -146 265 -146 -265 rlineto
          -97 hlineto
          186 340 rlineto
          endchar
        </CharString>
        <CharString name="asciitilde">
          337 632 182 hstem
          55 543 vstem
          55 660 rmoveto
          19 56 29 39 41 32 rrcurveto
          15 21 25 8 29 hhcurveto
          60 36 -26 -24 39 hvcurveto
          -19 27 27 -16 31 hhcurveto
          31 24 21 23 15 hvcurveto
          9 13 7 15 7 17 66 -28 rcurveline
          -21 -57 -28 -40 -39 -31 rrcurveto
          -15 -20 -24 -8 -27 hhcurveto
          -56 -38 24 25 -39 hvcurveto
          19 -28 -28 17 -31 hhcurveto
          -35 -24 -21 -23 -16 hvcurveto
          -9 -13 -8 -14 -6 -17 rrcurveto
          endchar
        </CharString>
        <CharString name="asterisk">
          43 488 247 hstem
          36 259 vstem
          128 8 callgsubr
          75 hlineto
          -9 -86 80 34 21 -72 -84 -17 56 -67 -64 -39 -38 74 -37 -74 -64 39 56 67 -84 17 21 72 80 -34 rlineto
          endchar
        </CharString>
        <CharString name="at">
          138 73 116 404 66 hstem
          122 60 79 47 vstem
          398 195 rmoveto
          -80 hlineto
          -10 27 -7 -13 -9 -8 -14 -7 rlinecurve
          -3 -7 -9 -2 -9 hhcurveto
          -53 -18 37 47 hvcurveto
          237 vlineto
          45 18 38 53 19 14 -9 -8 9 38 callsubr
          5 -5 3 -6 rrcurveto
          22 vlineto
          11 -4 19 -14 17 vhcurveto
          16 -14 -24 14 -37 hhcurveto
          -37 -23 -14 -16 -14 hvcurveto
          -14 -17 -5 -19 -11 vvcurveto
          -434 vlineto
          -12 5 -19 14 -15 vhcurveto
          -16 14 23 -13 37 hhcurveto
          43 23 11 20 16 hvcurveto
          74 -42 rlineto
          -36 -27 -45 -34 -84 hhcurveto
          -73 -46 28 33 -27 hvcurveto
          -28 33 -9 39 23 vvcurveto
          434 vlineto
          24 9 41 28 34 vhcurveto
          34 27 46 28 73 hhcurveto
          73 46 -28 -34 28 hvcurveto
          27 -34 9 -41 -24 vvcurveto
          -90 -80 rmoveto
          16 -9 10 -15 -15 -8 -9 -17 vhcurveto
          -222 vlineto
          -17 8 -9 15 15 9 7 19 vhcurveto
          endchar
        </CharString>
        <CharString name="atilde">
          45 -8 738 5 callsubr
          70 -89 callgsubr
          123 -220 -107 callgsubr
        </CharString>
        <CharString name="b">
          47 35 callsubr
          141 57 30 callsubr
          101 -224 -60 callgsubr
          -36 -101 vlineto
          101 120 rmoveto
          -19 15 -14 -9 callgsubr
          -17 -16 vhcurveto
          endchar
        </CharString>
        <CharString name="backslash">
          99 -88 914 hstem
          4 379 vstem
          383 -88 rmoveto
          -82 hlineto
          -297 914 rlineto
          79 hlineto
          endchar
        </CharString>
        <CharString name="bar">
          -114 -250 1076 hstem
          40 94 vstem
          40 -250 rmoveto
          1076 94 -1076 vlineto
          endchar
        </CharString>
        <CharString name="braceleft">
          48 -221 964 hstem
          30 278 vstem
          308 659 rmoveto
          -43 -29 -3 -15 -19 hvcurveto
          -19 -15 -8 -23 -40 vvcurveto
          -194 vlineto
          -53 -23 -31 -39 -24 vhcurveto
          39 -25 23 -31 -52 vvcurveto
          -194 vlineto
          -40 8 -23 19 -15 vhcurveto
          -15 19 29 -3 43 hhcurveto
          -84 vlineto
          -77 -1 -54 7 -34 27 rrcurveto
          -34 27 -15 45 75 43 callsubr
          7 -3 15 -9 16 vhcurveto
          -9 15 -16 14 -27 1 rrcurveto
          80 vlineto
          27 16 13 16 9 hvcurveto
          9 15 3 17 7 43 callsubr
          75 15 45 34 27 vhcurveto
          34 27 54 7 77 -1 rrcurveto
          endchar
        </CharString>
        <CharString name="braceright">
          48 -221 964 hstem
          28 278 vstem
          242 369 rmoveto
          -7 3 -17 9 -15 vhcurveto
          -16 9 16 -13 27 hhcurveto
          -80 vlineto
          -27 -1 -16 -14 -9 -15 rrcurveto
          -9 -16 -3 -15 -7 vvcurveto
          -194 vlineto
          -75 -14 -45 -34 -27 vhcurveto
          -34 -27 -55 -7 -77 1 rrcurveto
          84 vlineto
          43 29 3 15 19 hvcurveto
          19 15 8 23 40 43 callsubr
          52 23 31 39 25 vhcurveto
          -39 24 -23 31 53 43 callsubr
          40 -8 23 -19 15 vhcurveto
          15 -19 -29 3 -43 hhcurveto
          84 vlineto
          77 1 55 -7 34 -27 rrcurveto
          34 -27 14 -45 -75 vvcurveto
          endchar
        </CharString>
        <CharString name="bracketleft">
          -25 -104 839 hstem
          40 195 vstem
          235 639 rmoveto
          -99 -647 99 -96 -195 839 195 hlineto
          endchar
        </CharString>
        <CharString name="bracketright">
          -25 -104 839 hstem
          28 195 vstem
          28 8 callgsubr
          195 -839 -195 96 99 647 -99 hlineto
          endchar
        </CharString>
        <CharString name="breve">
          212 636 93 hstem
          140 220 vstem
          360 -90 callsubr
          endchar
        </CharString>
        <CharString name="bullet">
          36 276 244 hstem
          40 244 vstem
          40 399 rmoveto
          33 14 31 22 22 vhcurveto
          22 22 30 13 35 hhcurveto
          33 31 -13 -22 22 hvcurveto
          22 -22 13 -31 -33 vvcurveto
          -35 -13 -30 -22 -22 vhcurveto
          -22 -22 -31 -14 -33 hhcurveto
          -35 -30 14 22 -22 hvcurveto
          -22 22 -14 30 35 vvcurveto
          endchar
        </CharString>
        <CharString name="c">
          31 callgsubr
          13 callgsubr
          133 126 -93 callgsubr
          endchar
        </CharString>
        <CharString name="cacute">
          -3 callgsubr
          237 -65 callsubr
          1 -601 -93 callgsubr
          endchar
        </CharString>
        <CharString name="caron">
          27 callsubr
          196 -57 callsubr
          endchar
        </CharString>
        <CharString name="ccaron">
          -3 callgsubr
          105 -57 callsubr
          -79 -511 -93 callgsubr
          endchar
        </CharString>
        <CharString name="ccedilla">
          27 -54 46 210 153 13 callgsubr
          133 126 -93 callgsubr
          67 -544 -76 callsubr
        </CharString>
        <CharString name="ccircumflex">
          -3 callgsubr
          212 -71 callsubr
          28 -601 -93 callgsubr
          endchar
        </CharString>
        <CharString name="cdotaccent">
          31 callgsubr
          200 79 13 callgsubr
          108 -23 callsubr
          25 -508 -93 callgsubr
          endchar
        </CharString>
        <CharString name="cedilla">
          212 -188 134 hstem
          208 84 vstem
          292 -123 -76 callsubr
        </CharString>
        <CharString name="cent">
          23 296 153 hstem
          124 71 vstem
          194 765 rmoveto
          -119 vlineto
          31 -5 23 -13 16 -24 rrcurveto
          15 -24 8 -36 -52 vvcurveto
          -43 -92 66 vlineto
          33 -13 11 -23 -27 -8 -24 -20 vhcurveto
          -295 vlineto
          -20 8 -24 27 23 13 11 33 vhcurveto
          76 92 -53 vlineto
          -104 -32 -42 -61 -9 vhcurveto
          -148 -60 147 vlineto
          -60 9 -42 44 108 vvcurveto
          239 vlineto
          107 42 44 60 9 vhcurveto
          118 vlineto
          endchar
        </CharString>
        <CharString name="circumflex">
          27 callsubr
          303 -71 callsubr
          endchar
        </CharString>
        <CharString name="colon">
          -111 0 547 -436 325 hstemhm
          36 105 hintmask 10100000
          36 547 rmoveto
          105 hlineto
          hintmask 01100000
          -111 -105 vlineto
          -325 42 callgsubr
        </CharString>
        <CharString name="comma">
          -13 callgsubr
        </CharString>
        <CharString name="copyright">
          515 50 92 157 137 157 92 hstem
          84 222 71 48 67 227 -60 callsubr
          408 -68 rmoveto
          -61 vlineto
          -3 -36 -12 -25 -24 -20 rrcurveto
          -10 -12 -18 -5 -23 hhcurveto
          -48 -23 24 24 -12 hvcurveto
          -7 14 -4 16 18 vvcurveto
          259 vlineto
          36 14 25 25 20 vhcurveto
          10 13 18 5 24 hhcurveto
          47 21 -24 -24 12 hvcurveto
          7 -14 4 -16 1 -18 rrcurveto
          -61 -67 61 vlineto
          1 11 -3 8 -7 7 rrcurveto
          3 -3 -5 2 -7 hhcurveto
          -12 -6 -8 -8 -3 hvcurveto
          -2 -5 -1 -5 -5 vvcurveto
          -259 vlineto
          -12 3 -8 7 -6 vhcurveto
          -3 3 5 -2 6 hhcurveto
          13 6 7 8 3 hvcurveto
          2 5 1 5 -1 6 rrcurveto
          61 vlineto
          endchar
        </CharString>
        <CharString name="d">
          47 35 callsubr
          137 57 -40 callsubr
          -101 -7 callsubr
        </CharString>
        <CharString name="dcaron">
          198 35 callsubr
          137 57 101 62 -40 callsubr
          167 -111 -59 callsubr
          -268 -7 callsubr
        </CharString>
        <CharString name="dcroat">
          47 0 87 373 95 42 138 hstem
          36 101 57 101 vstem
          318 692 rmoveto
          -23 43 -101 -43 -21 -95 21 -86 hlineto
          -9 8 -8 7 -9 7 rrcurveto
          11 -15 -20 11 -19 hhcurveto
          -28 -19 -16 -20 -12 hvcurveto
          -13 -21 -6 -27 -23 vvcurveto
          -349 vlineto
          -23 6 -27 13 -20 vhcurveto
          -21 12 19 -16 28 hhcurveto
          9 10 2 5 10 hvcurveto
          19 9 15 12 17 16 rrcurveto
          -36 101 597 23 vlineto
          -124 -477 rmoveto
          -19 -15 -14 -15 -15 -12 14 19 vhcurveto
          307 vlineto
          19 12 14 15 15 15 -17 -16 vhcurveto
          endchar
        </CharString>
        <CharString name="dieresis">
          212 637 98 hstem
          226 48 vstem
          133 -53 callgsubr
          endchar
        </CharString>
        <CharString name="dollar">
          50 -105 900 hstemhm
          112 108 -85 86 hintmask 10100000
          200 795 rmoveto
          -61 vlineto
          40 -4 26 -18 18 -25 18 -25 9 -33 4 -33 -94 -12 rcurveline
          -4 33 -10 29 -31 -1 rrcurveto
          -16 -9 -10 -15 -6 hvcurveto
          -6 -15 -4 -19 -20 vvcurveto
          -28 12 -29 16 -27 vhcurveto
          16 -28 21 -28 19 -25 11 -15 11 -16 12 -17 24 -34 21 -37 13 -39 rrcurveto
          6 -20 3 -21 -21 vvcurveto
          -44 -7 -42 -19 -32 vhcurveto
          hintmask 11000000
          -19 -33 -30 -24 -45 -5 rrcurveto
          -106 -60 108 vlineto
          -44 8 -29 22 -19 31 -19 31 -10 39 -1 41 94 6 rcurveline
          1 -24 5 -23 10 -16 rrcurveto
          -17 10 14 -11 23 hhcurveto
          17 11 11 17 7 hvcurveto
          7 16 3 22 24 vvcurveto
          28 -12 29 -16 28 vhcurveto
          -9 14 -9 14 -9 13 -20 26 -19 25 -24 35 -24 35 -21 36 -12 40 rrcurveto
          -7 20 -3 20 21 vvcurveto
          36 6 36 16 31 vhcurveto
          hintmask 10100000
          16 31 27 24 40 9 rrcurveto
          64 vlineto
          endchar
        </CharString>
        <CharString name="dotaccent">
          211 634 101 hstem
          199 101 vstem
          199 -23 callsubr
          endchar
        </CharString>
        <CharString name="dotlessi">
          -107 0 547 hstem
          40 101 vstem
          40 hmoveto
          -28 callgsubr
        </CharString>
        <CharString name="e">
          34 -27 callgsubr
          6 callgsubr
          293 196 -105 callsubr
        </CharString>
        <CharString name="eacute">
          -26 callsubr
          286 -65 callsubr
          112 -531 -105 callsubr
        </CharString>
        <CharString name="ebreve">
          -30 callgsubr
          81 6 callgsubr
          272 -90 callsubr
          73 -533 -105 callsubr
        </CharString>
        <CharString name="ecaron">
          -26 callsubr
          109 -57 callsubr
          77 -441 -105 callsubr
        </CharString>
        <CharString name="ecircumflex">
          -26 callsubr
          215 -71 callsubr
          185 -531 -105 callsubr
        </CharString>
        <CharString name="edieresis">
          -30 callgsubr
          82 hstemhm
          126 73 -62 48 hintmask 10101000
          44 -53 callgsubr
          108 -441 -67 callgsubr
          -65 -33 -84 callgsubr
          17 39 36 30 rrcurveto
          15 17 25 7 33 15 callsubr
          vlineto
          hintmask 11110000
          -167 -119 hlineto
          -97 callgsubr
          endchar
        </CharString>
        <CharString name="edotaccent">
          -30 callgsubr
          79 6 callgsubr
          112 -23 callsubr
          181 -438 -105 callsubr
        </CharString>
        <CharString name="egrave">
          -26 callsubr
          155 -32 callgsubr
          243 -531 -105 callsubr
        </CharString>
        <CharString name="eight">
          52 -8 751 hstemhm
          132 77 -70 63 hintmask 10100000
          314 157 rmoveto
          -7 -1 -20 -5 -24 vhcurveto
          -5 -25 -12 -28 -21 -22 rrcurveto
          -22 -21 -32 -17 -47 hhcurveto
          -47 -32 17 22 -21 hvcurveto
          -21 22 -12 28 -5 25 rrcurveto
          -5 24 -1 20 7 vvcurveto
          86 vlineto
          55 19 55 37 35 vhcurveto
          -33 33 -17 51 51 vvcurveto
          62 vlineto
          9 1 40 18 37 vhcurveto
          37 18 33 35 68 hhcurveto
          68 34 -35 -37 18 hvcurveto
          18 -37 0 -40 -9 vvcurveto
          -62 vlineto
          -51 -17 -51 -33 -33 vhcurveto
          37 -35 19 -55 -55 vvcurveto
          -112 304 rmoveto
          34 -2 25 -3 17 vhcurveto
          17 -4 -9 8 -14 hhcurveto
          -12 -8 -7 -15 -4 hvcurveto
          -9 -29 -1 -99 8 -35 rrcurveto
          -18 3 9 -9 14 hhcurveto
          14 9 9 18 4 hvcurveto
          3 17 2 28 39 vvcurveto
          hintmask 11000000
          7 -347 rmoveto
          44 -2 33 -3 21 vhcurveto
          21 -4 -11 11 -19 hhcurveto
          -19 -11 -11 -21 -3 hvcurveto
          -8 -43 1 -107 10 -32 rrcurveto
          -17 5 10 -8 15 hhcurveto
          19 11 10 19 4 hvcurveto
          3 19 2 27 34 vvcurveto
          endchar
        </CharString>
        <CharString name="ellipsis">
          183 0 111 hstem
          131 52 105 52 vstem
          26 41 callsubr
          157 41 callsubr
          157 41 callsubr
          endchar
        </CharString>
        <CharString name="emacron">
          -30 callgsubr
          87 6 callgsubr
          65 -23 callgsubr
          228 -446 -105 callsubr
        </CharString>
        <CharString name="emdash">
          187 317 95 hstem
          36 403 vstem
          36 412 rmoveto
          403 -95 -403 hlineto
          endchar
        </CharString>
        <CharString name="endash">
          106 317 95 hstem
          36 322 vstem
          36 412 rmoveto
          322 -95 -322 hlineto
          endchar
        </CharString>
        <CharString name="eng">
          -132 84 505 90 34 callsubr
          299 452 rmoveto
          -1 22 -6 25 -11 20 rrcurveto
          -33 callsubr
          46 -101 -547 101 431 vlineto
          -18 callgsubr
          -439 vlineto
          -13 -3 -10 -5 -6 vhcurveto
          -12 -12 -13 -5 -20 4 rrcurveto
          -84 vlineto
          59 -3 38 14 24 21 rrcurveto
          24 20 9 30 31 vvcurveto
          471 vlineto
          endchar
        </CharString>
        <CharString name="eogonek">
          34 39 callgsubr
          113 89 174 79 133 88 hstemhm
          32 94 8 69 -4 94 hintmask 01111010
          214 hmoveto
          9 3 8 5 7 6 36 29 16 37 3 53 rrcurveto
          63 -94 -60 vlineto
          -11 -1 -9 -3 -8 24 callsubr
          -9 11 -6 15 -1 21 rrcurveto
          119 167 159 vlineto
          -1 26 -6 23 -9 21 rrcurveto
          35 -16 -33 36 -65 hhcurveto
          -33 -25 -7 -15 -17 hvcurveto
          -36 -30 -17 -39 -3 -53 rrcurveto
          -275 vlineto
          1 -27 6 -24 9 -21 rrcurveto
          hintmask 11111100
          -36 16 33 -36 65 hhcurveto
          11 10 1 1 9 hvcurveto
          -9 -7 -9 -9 -7 -9 -81 callsubr
          hintmask 01111010
          -22 callgsubr
          -122 411 rmoveto
          1 11 1 9 3 8 rrcurveto
          15 5 8 13 19 hhcurveto
          9 8 -3 -5 5 hvcurveto
          10 -12 4 -15 -21 vvcurveto
          -77 -73 vlineto
          endchar
        </CharString>
        <CharString name="equal">
          229 317 105 hstem
          36 445 vstem
          36 506 rmoveto
          445 -84 -445 hlineto
          -105 vmoveto
          445 -84 -445 hlineto
          endchar
        </CharString>
        <CharString name="eth">
          41 555 26 hstem
          132 69 vstem
          185 736 rmoveto
          3 -3 2 -3 3 -3 3 -3 3 -3 3 -3 3 -4 3 -4 3 -4 46 40 rcurveline
          27 -32 -49 -43 rlineto
          31 -48 30 -70 -100 vvcurveto
          -320 18 callgsubr
          -65 -32 -73 callgsubr
          283 vlineto
          9 0 35 10 32 vhcurveto
          31 10 20 29 44 hhcurveto
          23 26 -15 -23 27 hvcurveto
          -5 41 -9 33 -11 25 -40 -35 rcurveline
          -27 31 49 43 -7 11 -5 8 -4 5 rlinecurve
          -3 3 -2 2 -1 3 rrcurveto
          69 -276 -99 callsubr
          endchar
        </CharString>
        <CharString name="exclam">
          -99 111 87 hstem
          36 117 vstem
          36 8 callgsubr
          117 hlineto
          -27 -537 rlineto
          -63 hlineto
          -21 -87 -8 callgsubr
        </CharString>
        <CharString name="exclamdown">
          -99 349 87 hstem
          36 117 vstem
          42 547 -24 callsubr
          21 -87 rmoveto
          63 hlineto
          27 -537 rlineto
          -117 hlineto
          endchar
        </CharString>
        <CharString name="f">
          -56 547 102 hstem
          10 214 vstem
          61 hmoveto
          19 callgsubr
          1 45 14 37 vhcurveto
          37 14 28 30 59 hhcurveto
          16 11 -1 -3 8 hvcurveto
          12 -3 rlineto
          -87 vlineto
          -3 1 -3 0 -3 1 rrcurveto
          1 -7 -7 1 -7 hhcurveto
          -17 -8 -15 -19 -4 hvcurveto
          -2 -10 -1 -10 -10 -10 0 -8 -6 vvcurveto
          -14 51 -91 -51 -456 vlineto
          endchar
        </CharString>
        <CharString name="fi">
          89 547 104 hstem
          162 74 vstem
          236 hmoveto
          456 -74 -21 callsubr
          -90 vlineto
          -4 1 -5 1 -5 1 rrcurveto
          1 -9 -14 2 -17 9 callgsubr
          175 -547 vlineto
          endchar
        </CharString>
        <CharString name="five">
          56 214 134 152 128 hstem
          144 66 vstem
          210 348 rmoveto
          31 -11 23 -23 -12 -10 -9 -11 -8 vhcurveto
          -8 -12 -4 -14 -8 vvcurveto
          -91 387 261 -107 -168 -153 hlineto
          12 9 13 8 15 5 7 3 8 1 7 -1 rrcurveto
          56 30 -32 3 callgsubr
          16 -35 2 -38 -12 vvcurveto
          -164 vlineto
          -35 -2 -47 -19 -39 vhcurveto
          -40 40 callsubr
          44 -19 hvcurveto
          -19 43 -2 55 49 vvcurveto
          108 -29 hlineto
          -37 2 -26 5 -14 vhcurveto
          -15 5 8 -7 13 hhcurveto
          11 9 7 14 5 hvcurveto
          5 14 3 26 37 vvcurveto
          endchar
        </CharString>
        <CharString name="fl">
          89 547 104 hstem
          213 23 vstem
          236 hmoveto
          649 vlineto
          1 -9 -9 1 -15 9 callgsubr
          51 -91 -51 -21 callsubr
          80 -735 hlineto
          endchar
        </CharString>
        <CharString name="four">
          46 -29 callsubr
          104 75 vstem
          179 160 rmoveto
          -167 95 hlineto
          158 480 rlineto
          108 -480 50 -95 -50 -160 -99 hlineto
          -75 255 rmoveto
          75 252 -6 hlineto
          -6 -22 rlineto
          endchar
        </CharString>
        <CharString name="g">
          54 -196 751 -13 callsubr
          287 264 -107 callsubr
        </CharString>
        <CharString name="gbreve">
          54 555 81 -13 callsubr
          282 -90 callsubr
          57 -465 -107 callsubr
        </CharString>
        <CharString name="gcircumflex">
          54 555 82 -13 callsubr
          226 -71 callsubr
          168 -463 -107 callsubr
        </CharString>
        <CharString name="gcommaaccent">
          54 555 127 -13 callsubr
          118 793 -48 callgsubr
          169 -418 -107 callsubr
        </CharString>
        <CharString name="gdotaccent">
          54 555 79 -13 callsubr
          122 -23 callsubr
          165 -370 -107 callsubr
        </CharString>
        <CharString name="germandbls">
          70 547 106 hstem
          133 36 vstem
          169 547 rmoveto
          23 19 22 35 27 -13 22 -29 -25 -11 -23 -27 hvcurveto
          -603 -101 603 vlineto
          37 10 36 23 25 vhcurveto
          25 23 33 17 48 hhcurveto
          45 34 -16 -25 21 hvcurveto
          21 -25 11 -36 -37 vvcurveto
          -36 -16 -29 -27 -20 vhcurveto
          23 -13 18 -22 13 -38 rrcurveto
          13 -38 7 -54 -73 vvcurveto
          -121 -14 -71 -28 -40 vhcurveto
          -40 -28 -41 -9 -52 hhcurveto
          94 vlineto
          20 17 6 27 10 hvcurveto
          10 27 5 47 0 80 0 85 -5 49 28 flex1
          28 -10 -17 7 -20 hhcurveto
          endchar
        </CharString>
        <CharString name="grave">
          212 36 callgsubr
          143 157 vstem
          248 -32 callgsubr
          endchar
        </CharString>
        <CharString name="greater">
          33 callsubr
          481 317 rmoveto
          -445 -232 rlineto
          97 vlineto
          341 174 -341 174 rlineto
          97 vlineto
          445 -232 rlineto
          endchar
        </CharString>
        <CharString name="h">
          -29 callsubr
          141 57 vstem
          141 hmoveto
          -101 735 101 -234 -88 callgsubr
          endchar
        </CharString>
        <CharString name="hbar">
          457 98 57 79 34 callsubr
          141 612 rmoveto
          55 79 -55 44 -101 -44 -38 -79 38 -612 -38 callgsubr
        </CharString>
        <CharString name="hcircumflex">
          457 98 82 90 34 callsubr
          141 639 rmoveto
          28 33 31 -35 rlineto
          92 hlineto
          -69 90 rlineto
          -82 8 -101 -735 -38 callgsubr
        </CharString>
        <CharString name="hungarumlaut">
          212 36 callgsubr
          105 305 vstem
          262 -28 callsubr
          endchar
        </CharString>
        <CharString name="hyphen">
          -71 222 95 hstem
          36 145 vstem
          36 317 rmoveto
          145 -95 -145 hlineto
          endchar
        </CharString>
        <CharString name="i">
          -107 43 callgsubr
          40 101 vstem
          40 -23 callsubr
          -634 vmoveto
          -28 callgsubr
        </CharString>
        <CharString name="iacute">
          -107 -22 callsubr
          40 157 vstem
          197 -65 callsubr
          -52 -727 -26 callgsubr
        </CharString>
        <CharString name="ibreve">
          -107 547 89 hstem
          -18 220 vstem
          202 -90 callsubr
          -110 -729 -26 callgsubr
        </CharString>
        <CharString name="icircumflex">
          -107 -22 callsubr
          -32 245 vstem
          144 -71 callsubr
          3 -727 -26 callgsubr
        </CharString>
        <CharString name="idieresis">
          -106 -22 callsubr
          67 48 vstem
          -26 -53 callgsubr
          -75 -637 -26 callgsubr
        </CharString>
        <CharString name="igrave">
          -107 -22 callsubr
          -16 157 vstem
          89 -32 callgsubr
          56 -727 -26 callgsubr
        </CharString>
        <CharString name="ij">
          71 -93 93 43 callgsubr
          141 77 vstem
          40 -23 callsubr
          178 101 -27 callsubr
          -178 -634 rmoveto
          547 32 callsubr
          vlineto
          178 547 -42 callsubr
        </CharString>
        <CharString name="imacron">
          -107 547 95 hstem
          -5 194 vstem
          -5 -23 callgsubr
          45 -642 -26 callgsubr
        </CharString>
        <CharString name="iogonek">
          -107 39 callgsubr
          755 101 hstemhm
          11 69 -40 101 hintmask 11010000
          141 8 callgsubr
          -101 -101 101 hlineto
          -634 vmoveto
          547 -101 -547 vlineto
          hintmask 11100000
          37 hlineto
          -13 -9 -11 -11 -9 -11 -40 callgsubr
          vhcurveto
          hintmask 11010000
          17 13 2 7 21 hvcurveto
          -64 callsubr
          4 callgsubr
        </CharString>
        <CharString name="itilde">
          -107 43 callgsubr
          -5 194 vstem
          -5 -89 callgsubr
          45 -637 -26 callgsubr
        </CharString>
        <CharString name="j">
          -110 43 callgsubr
          -22 160 vstem
          37 -23 callsubr
          101 -87 -42 callsubr
        </CharString>
        <CharString name="jcircumflex">
          -110 -188 95 727 101 hstem
          37 101 vstem
          213 645 rmoveto
          -69 90 rlineto
          -107 hlineto
          -69 -90 rlineto
          69 -11 101 11 hlineto
          -101 -658 rmoveto
          -6 0 -8 -9 vvcurveto
          -9 -1 -9 -1 -8 vhcurveto
          -17 -4 -8 -14 -17 hhcurveto
          -6 -6 1 1 -7 hvcurveto
          -3 1 -3 0 -3 1 rrcurveto
          -93 vlineto
          3 -1 3 -1 4 -1 rrcurveto
          -2 7 11 -1 16 hhcurveto
          57 31 29 37 14 hvcurveto
          14 36 0 44 28 vvcurveto
          561 -101 vlineto
          endchar
        </CharString>
        <CharString name="k">
          25 -14 callsubr
          -61 callgsubr
          endchar
        </CharString>
        <CharString name="kcommaaccent">
          25 -54 54 -61 callgsubr
          175 -858 -76 callsubr
        </CharString>
        <CharString name="kgreenlandic">
          25 -14 callsubr
          -61 callgsubr
          endchar
        </CharString>
        <CharString name="l">
          -107 -29 callsubr
          40 101 -1 callsubr
          endchar
        </CharString>
        <CharString name="lacute">
          -107 735 13 hstem
          13 157 vstem
          170 838 -80 callsubr
          -25 -838 rmoveto
          735 101 -735 vlineto
          endchar
        </CharString>
        <CharString name="lcaron">
          44 -29 callsubr
          141 62 -1 callsubr
          167 624 -52 callsubr
        </CharString>
        <CharString name="lcommaaccent">
          -107 -47 47 hstem
          40 101 -1 callsubr
          -6 -116 -76 callsubr
        </CharString>
        <CharString name="ldot">
          -2 -29 callsubr
          141 40 -1 callsubr
          40 428 -8 callgsubr
        </CharString>
        <CharString name="less">
          33 callsubr
          36 395 rmoveto
          445 232 rlineto
          -97 vlineto
          -341 -174 341 -174 rlineto
          -97 vlineto
          -445 232 rlineto
          endchar
        </CharString>
        <CharString name="longs">
          -56 0 727 hstem
          18 198 vstem
          18 hmoveto
          573 vlineto
          121 52 33 75 21 24 -3 -5 26 vhcurveto
          -12 -78 rlineto
          3 -14 -14 1 -15 hhcurveto
          -48 -18 -17 -63 hvcurveto
          -565 vlineto
          endchar
        </CharString>
        <CharString name="lslash">
          -59 -29 callsubr
          15 199 vstem
          64 hmoveto
          312 vlineto
          -49 -38 rlineto
          108 vlineto
          49 38 rlineto
          315 101 -236 vlineto
          49 38 rlineto
          -108 vlineto
          -49 -38 rlineto
          -391 vlineto
          endchar
        </CharString>
        <CharString name="m">
          211 0 555 -15 callsubr
          65 95 65 vstem
          301 hmoveto
          -95 433 hlineto
          12 callsubr
          -431 -101 547 101 -46 vlineto
          -30 callsubr
          17 15 18 10 25 callgsubr
          8 2 9 hhcurveto
          36 21 -29 -32 11 hvcurveto
          4 3 5 5 7 7 13 14 17 13 19 11 25 callgsubr
          9 3 -59 callgsubr
          -95 433 vlineto
          12 callsubr
          endchar
        </CharString>
        <CharString name="macron">
          212 642 79 41 callgsubr
          -23 callgsubr
          endchar
        </CharString>
        <CharString name="minus">
          91 317 84 hstem
          36 307 vstem
          36 401 rmoveto
          307 -84 -307 hlineto
          endchar
        </CharString>
        <CharString name="n">
          0 555 -15 callsubr
          57 vstem
          141 hmoveto
          -87 callsubr
          endchar
        </CharString>
        <CharString name="nacute">
          -22 callsubr
          141 57 vstem
          248 -65 callsubr
          -2 -727 -76 callgsubr
        </CharString>
        <CharString name="napostrophe">
          547 23 -15 callsubr
          57 vstem
          86 635 -74 callsubr
          55 -704 -76 callgsubr
        </CharString>
        <CharString name="ncaron">
          -22 callsubr
          141 57 vstem
          116 -57 callsubr
          -82 -637 -76 callgsubr
        </CharString>
        <CharString name="ncommaaccent">
          -54 54 -15 callsubr
          57 vstem
          141 hmoveto
          -87 callsubr
          74 -554 -76 callsubr
        </CharString>
        <CharString name="nine">
          54 212 74 hstem
          136 66 vstem
          28 584 rmoveto
          17 2 40 19 36 vhcurveto
          35 19 34 31 67 hhcurveto
          65 36 -31 -35 19 hvcurveto
          19 -36 2 -40 -17 vvcurveto
          -418 vlineto
          -27 -1 -43 -19 -36 vhcurveto
          -37 -19 -34 -31 -68 hhcurveto
          -68 -34 31 37 -19 hvcurveto
          -19 36 -1 43 27 vvcurveto
          46 108 vlineto
          -49 1 -32 4 -19 vhcurveto
          -19 4 8 -7 16 hhcurveto
          13 9 6 13 5 hvcurveto
          4 13 2 20 28 vvcurveto
          138 vlineto
          -11 -19 -16 -7 -19 hhcurveto
          -56 -30 29 33 -16 hvcurveto
          -16 33 -2 40 20 vvcurveto
          174 175 rmoveto
          9 -8 24 -25 -23 -10 -24 -9 vhcurveto
          -213 vlineto
          -9 10 -24 23 23 9 19 11 1 vhcurveto
          endchar
        </CharString>
        <CharString name="ntilde">
          547 106 -15 callsubr
          57 vstem
          72 -89 callgsubr
          69 -637 -76 callgsubr
        </CharString>
        <CharString name="numbersign">
          314 309 126 hstem
          24 554 vstem
          37 309 rmoveto
          97 hlineto
          18 126 rlineto
          -96 hlineto
          13 95 rlineto
          96 28 callgsubr
          127 28 callgsubr
          94 hlineto
          -13 -95 rlineto
          -94 hlineto
          -18 -126 rlineto
          93 hlineto
          -13 -95 rlineto
          -93 29 callsubr
          -127 29 callsubr
          -97 hlineto
          206 95 rmoveto
          127 hlineto
          18 126 rlineto
          -127 hlineto
          endchar
        </CharString>
        <CharString name="o">
          33 -8 563 0 callgsubr
          290 133 -104 callsubr
        </CharString>
        <CharString name="oacute">
          -1 callgsubr
          284 -65 callsubr
          111 -90 callgsubr
        </CharString>
        <CharString name="obreve">
          33 555 81 0 callgsubr
          272 -90 callsubr
          70 -596 -104 callsubr
        </CharString>
        <CharString name="ocircumflex">
          -1 callgsubr
          214 -71 callsubr
          183 -90 callgsubr
        </CharString>
        <CharString name="odieresis">
          33 555 82 hstemhm
          126 69 -58 48 hintmask 10100000
          44 -53 callgsubr
          105 -504 -95 callgsubr
          hintmask 11000000
          -95 -3 -99 callsubr
          endchar
        </CharString>
        <CharString name="oe">
          198 -27 callgsubr
          hstem
          126 69 95 73 vstem
          457 8 callsubr
          -37 -27 11 17 -19 hvcurveto
          -16 -19 -27 -12 -37 -85 callsubr
          39 26 -12 -17 19 hvcurveto
          17 19 25 12 39 -68 callsubr
          -122 vlineto
          -4 1 -13 5 -12 vhcurveto
          -12 5 10 -11 16 29 callgsubr
          11 vvcurveto
          60 vlineto
          -168 215 -99 callsubr
          95 198 rmoveto
          73 77 hlineto
          21 -4 15 -58 callgsubr
          -16 -10 -11 -12 -5 hvcurveto
          -5 -12 -1 -13 -5 vvcurveto
          endchar
        </CharString>
        <CharString name="ogonek">
          212 -188 188 hstem
          170 161 vstem
          284 hmoveto
          -17 -15 -12 -15 -9 -20 rrcurveto
          -5 -10 -2 -11 -12 vvcurveto
          -29 27 -9 23 17 13 4 5 12 vhcurveto
          -8 -67 rlineto
          -7 -21 -13 -2 -17 hhcurveto
          -65 -37 40 45 28 16 25 17 19 hvcurveto
          9 11 11 11 13 9 rrcurveto
          endchar
        </CharString>
        <CharString name="ograve">
          -1 callgsubr
          153 -32 callgsubr
          242 -90 callgsubr
        </CharString>
        <CharString name="ohungarumlaut">
          -1 callgsubr
          166 -28 callsubr
          81 -90 callgsubr
        </CharString>
        <CharString name="omacron">
          33 555 87 0 callgsubr
          65 -23 callgsubr
          225 -509 -104 callsubr
        </CharString>
        <CharString name="one">
          -56 -29 callsubr
          12 180 vstem
          12 576 rmoveto
          69 vlineto
          45 9 27 23 19 20 10 12 8 13 6 13 rrcurveto
          65 -735 -108 576 hlineto
          endchar
        </CharString>
        <CharString name="oslash">
          33 -38 623 0 callgsubr
          61 -38 rmoveto
          15 59 -23 21 -12 28 -5 24 rlinecurve
          -3 13 -2 14 15 vvcurveto
          275 vlineto
          3 53 16 39 35 -39 callsubr
          20 17 -4 -5 15 hvcurveto
          10 39 rlineto
          37 hlineto
          -15 -59 23 -21 10 -27 7 -23 rlinecurve
          3 -13 2 -14 1 -14 rrcurveto
          -281 18 callgsubr
          -19 -16 3 5 -15 hvcurveto
          -10 -38 rlineto
          26 251 rmoveto
          61 237 rlineto
          11 -5 -7 6 -15 hhcurveto
          -19 -8 -13 -15 -63 callsubr
          1 -11 rrcurveto
          69 -78 rmoveto
          -61 -237 rlineto
          -10 5 9 -5 12 29 callgsubr
          -1 11 rrcurveto
          endchar
        </CharString>
        <CharString name="otilde">
          33 555 79 0 callgsubr
          64 -89 callgsubr
          226 -504 -104 callsubr
        </CharString>
        <CharString name="p">
          47 -188 743 -15 callsubr
          57 vstem
          40 547 rmoveto
          101 -36 -55 callsubr
        </CharString>
        <CharString name="parenleft">
          -14 -145 921 hstem
          32 222 vstem
          254 8 callgsubr
          -48 -69 -32 -78 -26 -102 rrcurveto
          -13 -51 -7 -57 -63 vvcurveto
          -125 31 -103 32 -75 vhcurveto
          18 -43 21 -39 24 -34 -79 -41 rcurveline
          -53 83 -39 88 -29 112 rrcurveto
          -15 55 -7 59 63 vvcurveto
          125 35 115 36 84 vhcurveto
          21 49 24 46 27 42 rrcurveto
          endchar
        </CharString>
        <CharString name="parenright">
          -14 -145 921 hstem
          20 222 vstem
          99 776 rmoveto
          52 -84 39 -88 30 -111 rrcurveto
          15 -56 7 -59 -63 vvcurveto
          -125 -36 -115 -36 -84 vhcurveto
          -21 -49 -24 -46 -26 -41 -79 41 rcurveline
          47 68 32 79 27 102 rrcurveto
          13 51 7 56 63 vvcurveto
          125 -32 103 -31 75 vhcurveto
          -19 43 -21 39 -23 35 rrcurveto
          endchar
        </CharString>
        <CharString name="percent">
          201 -8 751 hstem
          87 35 60 126 60 35 vstem
          182 445 rmoveto
          -1 -33 -12 -23 28 callsubr
          20 23 23 callgsubr
          22 14 callsubr
          -12 3 -14 1 -16 rrcurveto
          -105 -658 rmoveto
          270 735 rlineto
          64 hlineto
          -267 -735 rlineto
          -22 658 rmoveto
          -11 callsubr
          -11 -1 2 -16 17 hhcurveto
          15 2 16 11 hvcurveto
          341 -368 rmoveto
          -1 -33 -12 -22 28 callsubr
          21 21 23 callgsubr
          23 14 callsubr
          -13 3 -14 1 -16 rrcurveto
          -60 hmoveto
          -11 callsubr
          -1 -11 3 -6 5 -6 rrcurveto
          -3 2 4 -2 5 hhcurveto
          9 3 7 7 3 hvcurveto
          1 4 1 5 5 vvcurveto
          endchar
        </CharString>
        <CharString name="period">
          -131 0 111 hstem
          26 105 vstem
          26 41 callsubr
          endchar
        </CharString>
        <CharString name="periodcentered">
          -183 317 111 hstem
          0 105 vstem
          428 42 callgsubr
        </CharString>
        <CharString name="plus">
          230 148 422 hstem
          36 446 vstem
          36 401 rmoveto
          181 169 84 -169 181 -84 -181 -169 -84 169 -181 hlineto
          endchar
        </CharString>
        <CharString name="q">
          47 -188 37 callgsubr
          137 57 vstem
          295 -188 rmoveto
          -101 224 -61 callsubr
          36 101 vlineto
          -101 -120 rmoveto
          19 -15 14 -9 callsubr
          17 16 vhcurveto
          endchar
        </CharString>
        <CharString name="question">
          27 111 87 hstem
          12 283 vstem
          103 198 rmoveto
          125 vlineto
          53 9 43 13 36 vhcurveto
          13 36 17 28 15 25 14 23 9 19 3 13 1 7 -1 11 -4 10 rrcurveto
          10 -5 -9 8 -15 hhcurveto
          -19 -13 -12 -15 -11 hvcurveto
          -11 -16 -7 -19 -3 -9 -87 41 rcurveline
          5 16 17 31 25 28 24 27 35 23 47 -1 56 -1 34 -25 18 -30 rrcurveto
          18 -30 4 -34 -20 vvcurveto
          -41 -18 -30 -21 -36 vhcurveto
          -6 -10 -6 -11 -7 -11 -14 -24 -13 -28 -8 -32 rrcurveto
          -4 -17 -2 -17 -19 vvcurveto
          -125 vlineto
          -99 -87 -8 callgsubr
        </CharString>
        <CharString name="questiondown">
          27 349 87 hstem
          20 283 vstem
          218 436 rmoveto
          -105 111 105 hlineto
          -6 -198 rmoveto
          -125 vlineto
          -53 -10 -43 -12 -36 vhcurveto
          -13 -36 -17 -28 -15 -25 -14 -23 -9 -19 -3 -13 -1 -7 1 -10 5 -10 rrcurveto
          -10 4 9 -9 15 hhcurveto
          17 15 12 16 11 hvcurveto
          11 15 7 17 3 11 87 -41 rcurveline
          -7 -16 -15 -31 -24 -27 -25 -28 -37 -23 -45 1 -56 1 -33 26 -18 30 rrcurveto
          -18 30 -5 33 20 vvcurveto
          41 18 30 21 36 vhcurveto
          6 10 7 11 7 12 14 23 12 28 8 33 rrcurveto
          4 16 2 17 19 vvcurveto
          125 vlineto
          endchar
        </CharString>
        <CharString name="quotedbl">
          -28 466 269 hstem
          135.5 34 vstem
          53 466 rmoveto
          10 callgsubr
          49 hmoveto
          10 callgsubr
          endchar
        </CharString>
        <CharString name="quotedblbase">
          17 -130 1 callsubr
          131 hmoveto
          -47 callgsubr
        </CharString>
        <CharString name="quotedblleft">
          -35 callsubr
        </CharString>
        <CharString name="quotedblright">
          -36 callsubr
        </CharString>
        <CharString name="quoteleft">
          -137 494 241 hstem
          24 105 vstem
          24 605 9 callsubr
        </CharString>
        <CharString name="quoteright">
          -137 494 18 callsubr
          624 -52 callsubr
        </CharString>
        <CharString name="quotesinglbase">
          -13 callgsubr
        </CharString>
        <CharString name="quotesingle">
          -137 466 269 hstem
          28 105 vstem
          43 466 rmoveto
          10 callgsubr
          endchar
        </CharString>
        <CharString name="r">
          -42 0 555 hstem
          40 202 vstem
          242 443 -62 callgsubr
          endchar
        </CharString>
        <CharString name="racute">
          -42 -22 callsubr
          40 202 vstem
          203 -65 callsubr
          144 -284 -62 callgsubr
          endchar
        </CharString>
        <CharString name="rcaron">
          -42 -22 callsubr
          2 245 vstem
          71 -57 callsubr
          64 -194 -62 callgsubr
          endchar
        </CharString>
        <CharString name="rcommaaccent">
          -42 -48 48 hstem
          40 202 vstem
          242 443 -62 callgsubr
          -109 -672 -76 callsubr
        </CharString>
        <CharString name="registered">
          515 50 103 240 126 63 103 hstem
          84 221 71 63 75 205 -60 callsubr
          317 215 rmoveto
          80 33 -47 -79 -43 -3 -32 -40 -33 hvcurveto
          52 -195 rlineto
          -74 hlineto
          -46 178 rlineto
          -27 -178 -71 429 hlineto
          71 -63 rmoveto
          -126 22 vlineto
          21 14 8 12 6 hvcurveto
          6 12 1 15 0 15 0 15 -1 16 12 flex1
          12 -6 -14 9 -21 hhcurveto
          endchar
        </CharString>
        <CharString name="ring">
          211 659 70 hstem
          213 74 vstem
          175 694 -44 callsubr
          -46 callgsubr
          endchar
        </CharString>
        <CharString name="s">
          20 159 248 hstemhm
          112 82 -65 64 hintmask 10100000
          193 407 -82 callgsubr
          hintmask 11000000
          -83 callgsubr
          hintmask 10100000
          -46 callsubr
          endchar
        </CharString>
        <CharString name="sacute">
          -3 callsubr
          234 -65 callsubr
          64 -320 -86 callsubr
        </CharString>
        <CharString name="scaron">
          -3 callsubr
          101 -57 callsubr
          -15 -230 -86 callsubr
        </CharString>
        <CharString name="scedilla">
          20 -54 46 167 248 hstemhm
          112 82 -65 64 hintmask 11010000
          193 407 -82 callgsubr
          hintmask 11100000
          -83 callgsubr
          hintmask 11010000
          -46 callsubr
          -90 -530 -76 callsubr
        </CharString>
        <CharString name="scircumflex">
          -3 callsubr
          209 -71 callsubr
          91 -320 -86 callsubr
        </CharString>
        <CharString name="semicolon">
          -111 -130 677 hstem
          36 105 vstem
          36 547 -24 callsubr
          105 -436 -52 callsubr
        </CharString>
        <CharString name="seven">
          0 -29 callsubr
          4 272 vstem
          166 628 rmoveto
          -162 107 272 -108 hlineto
          -108 -627 rlineto
          -112 hlineto
          endchar
        </CharString>
        <CharString name="six">
          54 456 67 hstem
          140 66 vstem
          314 151 rmoveto
          -17 -2 -40 -19 -35 vhcurveto
          -36 40 callsubr
          36 -19 hvcurveto
          -19 35 -2 40 17 vvcurveto
          418 vlineto
          25 1 45 19 37 vhcurveto
          36 19 34 31 68 hhcurveto
          68 34 -31 -36 19 hvcurveto
          19 -37 1 -45 -25 vvcurveto
          -46 -108 vlineto
          49 -1 32 -4 19 vhcurveto
          19 -4 -8 7 -16 hhcurveto
          -13 -9 -6 -13 -4 hvcurveto
          -5 -13 -2 -20 -28 vvcurveto
          -131 vlineto
          11 19 16 7 19 hhcurveto
          56 30 -29 -33 16 hvcurveto
          16 -33 2 -40 -20 vvcurveto
          -174 -182 rmoveto
          -9 8 -24 25 23 10 24 9 vhcurveto
          220 vlineto
          9 -10 24 -23 -23 -9 -19 -11 -1 vhcurveto
          endchar
        </CharString>
        <CharString name="slash">
          64 -72 807 hstem
          4 344 vstem
          269 8 callgsubr
          79 hlineto
          -262 -807 rlineto
          -82 hlineto
          endchar
        </CharString>
        <CharString name="space">
          -134 endchar
        </CharString>
        <CharString name="sterling">
          111 183.5 133.5 67 163 hstemhm
          149 100 -33 77 hintmask 11100000
          249 547 rmoveto
          24 -3 25 -8 18 vhcurveto
          18 -8 -14 11 -23 hhcurveto
          -16 -11 -11 -16 -7 hvcurveto
          -8 -16 -2 -20 -19 vvcurveto
          -53 17 -56 17 -56 vhcurveto
          hintmask 11010000
          3 -12 rlineto
          103 -67 -85 hlineto
          8 -33 4 -29 -23 vvcurveto
          -27 -9 -41 -19 -39 vhcurveto
          13 -6 11 -6 10 -6 9 -7 11 -3 11 -1 9 1 9 7 8 14 8 13 5 24 1 34 92 -11 rcurveline
          -123 -8 -51 -63 -64 hhcurveto
          -24 -23 13 12 -23 hvcurveto
          12 -23 -21 13 -19 hhcurveto
          -19 -14 -13 -12 -9 hvcurveto
          -6 -7 -5 -9 -3 -9 -71 39 rcurveline
          15 33 18 26 25 23 13 11 15 8 17 3 rrcurveto
          11 31 7 38 28 vvcurveto
          25 -6 29 -9 31 vhcurveto
          -92 67 72 hlineto
          -3 10 rlineto
          -19 63 -19 63 41 vvcurveto
          41 8 46 23 35 vhcurveto
          23 35 35 24 55 1 65 1 41 -25 24 -36 rrcurveto
          24 -37 8 -50 -49 vvcurveto
          endchar
        </CharString>
        <CharString name="t">
          -43 -8 690 -52 callgsubr
          endchar
        </CharString>
        <CharString name="tbar">
          -43 -8 102 362 91 95 79 hstem
          61 101 vstem
          231 456 rmoveto
          91 -69 95 59 79 -194 -79 34 -95 -51 -91 51 -280 vlineto
          -32 1 -46 14 -38 vhcurveto
          -38 14 28 -30 59 hhcurveto
          16 13 1 2 10 hvcurveto
          5 1 5 2 5 1 rrcurveto
          99 vlineto
          -4 -1 -4 0 -4 -1 rrcurveto
          -1 -7 -10 -1 -8 hhcurveto
          -16 -8 15 18 -4 hvcurveto
          -4 18 0 22 17 vvcurveto
          272 vlineto
          endchar
        </CharString>
        <CharString name="tcaron">
          108 547 77 hstemhm
          162 105 -36 36 hintmask 11000000
          372 624 rmoveto
          hintmask 10100000
          -55 -31 callgsubr
          hintmask 11000000
          -56 callgsubr
          -210 -53 rmoveto
          -135 vlineto
          hintmask 10100000
          69 -91 hlineto
          hintmask 11000000
          -69 -272 hlineto
          -63 callgsubr
          endchar
        </CharString>
        <CharString name="thorn">
          47 -188 923 -15 callsubr
          57 30 callsubr
          101 -224 -55 callsubr
        </CharString>
        <CharString name="three">
          47 212 120 90 101 hstemhm
          128 66 -62 71 hintmask 11100000
          112 332 rmoveto
          90 vlineto
          45 3 21 9 9 21 rrcurveto
          5 10 2 13 16 16 0 20 23 vvcurveto
          21 0 23 -4 19 vhcurveto
          19 -4 -9 13 -17 hhcurveto
          -13 -8 -6 -19 -4 hvcurveto
          -5 -20 -2 -31 -49 vvcurveto
          -106 hlineto
          41 1 56 18 45 vhcurveto
          44 18 33 34 68 hhcurveto
          68 35 -35 -37 18 hvcurveto
          18 -37 1 -40 -9 vvcurveto
          -109 -19 -52 -33 -33 vhcurveto
          -1 -1 rlineto
          52 -41 10 -76 -85 vvcurveto
          -3 0 -7 -1 -11 vhcurveto
          -1 -21 -6 -31 -11 -32 -12 -32 -20 -29 -31 -17 rrcurveto
          -9 -16 -19 -4 -23 hhcurveto
          -68 -35 34 45 -19 hvcurveto
          -19 44 -2 56 41 vvcurveto
          hintmask 11010000
          106 hlineto
          -49 3 -31 6 -19 vhcurveto
          -20 6 9 -6 13 hhcurveto
          17 9 13 18 4 hvcurveto
          4 18 0 23 21 vvcurveto
          23 0 21 1 19 vhcurveto
          36 -7 25 -23 15 vhcurveto
          hintmask 11100000
          -12 7 -18 5 -23 1 rrcurveto
          endchar
        </CharString>
        <CharString name="tilde">
          212 634 96 41 callgsubr
          -89 callgsubr
          endchar
        </CharString>
        <CharString name="trademark">
          170 401 334 hstem
          193 22 50 102 vstem
          36 684 rmoveto
          51 157 -51 -51 -283 -55 283 vlineto
          217 -283 rmoveto
          -39 219 rlineto
          -219 -50 334 67 vlineto
          33 -156 rlineto
          3 hlineto
          33 156 rlineto
          67 -334 -51 219 hlineto
          -38 -219 rlineto
          endchar
        </CharString>
        <CharString name="two">
          69 0 37 callgsubr
          138 72 vstem
          30 502 rmoveto
          51 vlineto
          49 7 48 21 35 vhcurveto
          35 21 36 23 59 hhcurveto
          55 37 -21 -32 22 hvcurveto
          22 -33 8 -46 -51 vvcurveto
          -75 -28 -89 -35 -83 vhcurveto
          -36 -84 -42 -75 -28 -47 rrcurveto
          171 -107 -293 107 hlineto
          33 51 30 52 27 52 23 44 22 50 17 51 17 51 13 50 1 45 rrcurveto
          20 -1 23 -5 17 vhcurveto
          17 -5 -9 13 -16 hhcurveto
          -15 -9 -11 -16 -5 hvcurveto
          -5 -17 -2 -22 -24 vvcurveto
          -51 vlineto
          endchar
        </CharString>
        <CharString name="u">
          -8 555 42 callsubr
          196 547 -97 callsubr
        </CharString>
        <CharString name="uacute">
          5 callgsubr
          291 -65 callsubr
          10 -78 callsubr
        </CharString>
        <CharString name="ubreve">
          547 89 42 callsubr
          280 -90 callsubr
          -32 -182 -97 callsubr
        </CharString>
        <CharString name="ucircumflex">
          5 callgsubr
          222 -71 callsubr
          81 -78 callsubr
        </CharString>
        <CharString name="udieresis">
          547 90 hstemhm
          139 57 -51 48 hintmask 10100000
          52 -53 callgsubr
          hintmask 11000000
          3 -90 -97 callsubr
        </CharString>
        <CharString name="ugrave">
          5 callgsubr
          160 -32 callgsubr
          141 -78 callsubr
        </CharString>
        <CharString name="uhungarumlaut">
          5 callgsubr
          174 -28 callsubr
          -21 -78 callsubr
        </CharString>
        <CharString name="umacron">
          547 95 42 callsubr
          73 -23 callgsubr
          123 -95 -97 callsubr
        </CharString>
        <CharString name="underscore">
          303 -159 84 hstem
          36 519 vstem
          36 -75 rmoveto
          519 -84 -519 hlineto
          endchar
        </CharString>
        <CharString name="uni0093">
          -35 callsubr
        </CharString>
        <CharString name="uni0094">
          -36 callsubr
        </CharString>
        <CharString name="uni021A">
          28 -54 54 hstem
          2 312 vstem
          2 624 -10 callsubr
          111 -747 -76 callsubr
        </CharString>
        <CharString name="uni021B">
          -43 -54 46 -52 callgsubr
          154 -805 -76 callsubr
        </CharString>
        <CharString name="uni201F">
          -18 callsubr
          131 8 callgsubr
          12 callgsubr
          253 hmoveto
          12 callgsubr
          endchar
        </CharString>
        <CharString name="uogonek">
          39 callgsubr
          121 90 hstemhm
          38 101 -2 69 -10 101 hintmask 11101000
          297 hmoveto
          547 -101 -431 vlineto
          -3 -5 -3 -5 -3 -3 rrcurveto
          -7 -7 -6 -6 -11 hhcurveto
          -12 -12 3 21 hvcurveto
          433 -101 -448 vlineto
          -23 6 -27 12 -20 vhcurveto
          -21 12 19 -16 27 hhcurveto
          9 9 3 5 9 hvcurveto
          18 10 14 14 12 12 5 5 4 4 2 1 rrcurveto
          -46 7 vlineto
          hintmask 11010000
          -71 callgsubr
          hintmask 11101000
          4 callgsubr
        </CharString>
        <CharString name="uring">
          547 77 35 70 hstemhm
          133 74 -68 57 hintmask 10010000
          95 694 -51 callgsubr
          hintmask 10010000
          63 -147 -97 callsubr
        </CharString>
        <CharString name="utilde">
          547 87 -87 106 hstemhm
          139 57 hintmask 01100000
          73 711 -72 callsubr
          hintmask 10100000
          123 -90 -89 callsubr
          hintmask 01100000
          -79 callgsubr
        </CharString>
        <CharString name="v">
          6 0 547 -15 callsubr
          12 vstem
          97 hmoveto
          -89 547 rlineto
          98 hlineto
          33 -317 4 -35 rlineto
          8 hlineto
          4 35 33 317 rlineto
          98 hlineto
          -89 -547 rlineto
          endchar
        </CharString>
        <CharString name="w">
          154 0 547 hstem
          136 0 callsubr
          70 9 70 0 callsubr
          vstem
          267 hmoveto
          -38 callsubr
        </CharString>
        <CharString name="wcircumflex">
          154 -22 callsubr
          136 0 callsubr
          70 9 70 0 callsubr
          vstem
          276 -71 callsubr
          98 -727 rmoveto
          -38 callsubr
        </CharString>
        <CharString name="x">
          14 0 547 hstem
          8 44 callgsubr
          102 282 rmoveto
          -86 265 rlineto
          95 hlineto
          36 -128 3 -15 rlineto
          2 hlineto
          3 15 36 128 rlineto
          95 hlineto
          -86 -265 94 -282 rlineto
          -98 hlineto
          -41 138 -3 15 rlineto
          -2 hlineto
          -3 -15 -41 -138 rlineto
          -98 hlineto
          endchar
        </CharString>
        <CharString name="y">
          22 -196 37 callgsubr
          12 44 callgsubr
          16 -104 -83 callsubr
        </CharString>
        <CharString name="yacute">
          22 -22 callsubr
          12 44 callgsubr
          270 -65 callsubr
          -149 -831 -83 callsubr
        </CharString>
        <CharString name="ycircumflex">
          22 -22 callsubr
          12 44 callgsubr
          210 -71 callsubr
          -87 -831 -83 callsubr
        </CharString>
        <CharString name="ydieresis">
          22 -22 callsubr
          131 48 vstem
          38 -53 callgsubr
          -163 -741 -83 callsubr
        </CharString>
        <CharString name="yen">
          64 233 67 hstem
          12 328 vstem
          36 233 rmoveto
          86 67 -86 67 72 hlineto
          -96 368 rlineto
          106 hlineto
          54 -235 -31 callsubr
          -96 -368 rlineto
          72 -67 -86 -67 86 -67 -86 -166 -108 166 -86 hlineto
          endchar
        </CharString>
        <CharString name="z">
          -28 0 547 hstem
          6 246 vstem
          6 82 -49 callsubr
        </CharString>
        <CharString name="zacute">
          -28 -22 callsubr
          6 246 vstem
          210 -65 callsubr
          -99 -645 -49 callsubr
        </CharString>
        <CharString name="zcaron">
          -28 -22 callsubr
          6 251 vstem
          81 -57 callsubr
          -182 -555 -49 callsubr
        </CharString>
        <CharString name="zdotaccent">
          -28 43 callgsubr
          6 246 vstem
          81 -23 callsubr
          -75 -552 -49 callsubr
        </CharString>
        <CharString name="zero">
          -69 callgsubr
        </CharString>
      <CharString index="0">
        rmoveto
        -92 callgsubr
        33 30 -13 -22 23 hvcurveto
        23 -22 14 -31 -36 vvcurveto
        -336 vlineto
        -49 3 -22 4 -24 vhcurveto
        -99 hlineto
        -9 11 0 26 7 vvcurveto
        -7 hlineto
        -5 -9 -9 -13 -14 -11 rrcurveto
        -11 -14 -19 -8 -20 -85 callgsubr
        -93 vmoveto
        -79 callsubr
      </CharString>
      <CharString index="1">
        rmoveto
        -1 -30 -6 -27 -11 -23 -9 -20 -14 -19 -20 -15 rrcurveto
        -16 -20 -27 -9 -36 -106 callsubr
      </CharString>
      <CharString index="2">
        hhcurveto
        -36 -28 9 16 -19 callgsubr
        15 -13 19 -9 20 -11 -14 callgsubr
        -1 -104 callgsubr
        return
      </CharString>
      <CharString index="3">
        30 rrcurveto
        -17 callgsubr
        -103 callgsubr
        return
      </CharString>
      <CharString index="4">
        -94 callsubr
        36 27 -10 -15 20 hvcurveto
        20 -15 14 -20 9 -20 11 -23 6 -27 1 -29 rrcurveto
        return
      </CharString>
      <CharString index="5">
        rmoveto
        -17 -17 -20 -14 -27 -9 rrcurveto
        -5 -13 -16 -2 -17 hhcurveto
        -35 -27 11 12 -19 hvcurveto
        -11 7 -10 8 -8 9 54 46 rcurveline
        7 -9 11 -7 14 -4 rrcurveto
        -2 7 8 -1 22 callsubr
        13 4 7 11 hvcurveto
        6 3 5 4 4 5 rrcurveto
        return
      </CharString>
      <CharString index="6">
        -21 5 -11 callgsubr
        vhcurveto
        -98 callsubr
        7 1 9 11 vvcurveto
        return
      </CharString>
      <CharString index="7">
        -94 callgsubr
        -73 callsubr
        -75 callsubr
        return
      </CharString>
      <CharString index="8">
        rmoveto
        113 vlineto
        -55 callgsubr
        -442 -100 callsubr
        133 -43 91 151 -366 -64 vlineto
        -13 35 rlineto
        -25 -20 -29 -18 -35 hhcurveto
        -35 -24 9 16 -18 hvcurveto
        -18 15 -12 19 -8 20 -9 23 -4 27 1 -104 callgsubr
        -113 vlineto
        return
      </CharString>
      <CharString index="9">
        -108 hmoveto
        20 -4 14 -10 12 vhcurveto
        5 -5 -8 3 -9 -95 callsubr
      </CharString>
      <CharString index="10">
        11 callsubr
        -91 callsubr
        11 vvcurveto
        60 vlineto
        -73 138 rmoveto
        73 77 hlineto
        21 -4 15 -10 12 vhcurveto
        -54 callsubr
        -5 -66 callgsubr
        -1 -11 rrcurveto
        return
      </CharString>
      <CharString index="11">
        -1 -30 -6 -27 -11 -23 -9 -20 -14 -19 -20 -15 rrcurveto
        -16 -20 -27 -9 -36 -105 callgsubr
        return
      </CharString>
      <CharString index="12">
        rmoveto
        -3 -53 -16 -37 -35 -29 rrcurveto
        -15 -18 -25 -7 -33 -85 callsubr
        65 33 -36 3 callgsubr
        9 -21 6 -23 1 -26 rrcurveto
        return
      </CharString>
      <CharString index="13">
        rmoveto
        9 7 12 5 12 4 rrcurveto
        2 6 7 1 7 hhcurveto
        15 15 -3 -5 14 hvcurveto
        14 -6 15 -4 15 -1 rrcurveto
        15 11 4 4 11 hvcurveto
        6 3 5 2 5 3 rrcurveto
        -74 vlineto
        return
      </CharString>
      <CharString index="14">
        rmoveto
        -20 1 -24 27 23 6 11 33 vhcurveto
        76 101 -53 vlineto
        -61 -11 -39 -22 -24 vhcurveto
        -24 -22 -32 -9 -43 hhcurveto
        -36 -33 10 25 -23 hvcurveto
        -23 25 -14 41 61 vvcurveto
        239 vlineto
        61 14 41 23 25 vhcurveto
        25 23 33 10 36 hhcurveto
        43 32 -9 -24 22 hvcurveto
        22 -24 11 -39 -61 vvcurveto
        -43 -101 66 vlineto
        33 -6 11 -23 -27 -1 -24 -20 vhcurveto
        return
      </CharString>
      <CharString index="15">
        9 0 14 -3 10 vhcurveto
        10 -4 -8 7 -13 hhcurveto
        -17 -7 -13 -16 -3 hvcurveto
        -1 -8 -1 -9 -9 -9 0 -9 -8 vvcurveto
        -101 23 hlineto
        40 15 36 24 27 vhcurveto
        27 24 34 16 39 hhcurveto
        return
      </CharString>
      <CharString index="16">
        -77 callgsubr
        -36 -28 9 16 -19 callgsubr
        15 -13 19 -9 20 -11 -14 callgsubr
        -1 30 rrcurveto
        return
      </CharString>
      <CharString index="17">
        -594 -104 callsubr
      </CharString>
      <CharString index="18">
        711 -100 callgsubr
        return
      </CharString>
      <CharString index="19">
        hlineto
        -30 callsubr
        15 15 18 10 25 callgsubr
        8 2 -59 callgsubr
        -101 21 callsubr
        -12 3 -12 -11 -6 -6 -7 -7 vhcurveto
        -3 -4 44 callsubr
        -5 rrcurveto
        return
      </CharString>
      <CharString index="20">
        hhcurveto
        19 9 12 15 4 hvcurveto
        3 return
      </CharString>
      <CharString index="21">
        871 -102 callgsubr
        return
      </CharString>
      <CharString index="22">
        hhcurveto
        -13 -21 5 20 -16 hvcurveto
        -17 19 -14 34 57 vvcurveto
        61 18 44 24 30 vhcurveto
        24 30 30 19 25 13 25 13 19 9 4 11 rrcurveto
        return
      </CharString>
      <CharString index="23">
        -73 callgsubr
        275 vlineto
        3 53 return
      </CharString>
      <CharString index="24">
        -29 -21 -32 -21 -48 hhcurveto
        -61 -36 28 34 -19 callgsubr
        34 -4 42 29 vvcurveto
        94 hlineto
        -15 1 -21 7 -16 vhcurveto
        -17 7 11 -14 21 hhcurveto
        29 6 34 32 33 -32 33 -31 31 hvcurveto
        -24 23 -23 21 -18 27 rrcurveto
        -18 27 -13 30 40 vvcurveto
        32 6 37 19 29 vhcurveto
        return
      </CharString>
      <CharString index="25">
        rmoveto
        13 0 16 -4 13 vhcurveto
        12 -5 -8 10 -16 hhcurveto
        -13 -8 -10 -12 -4 hvcurveto
        -5 -12 -1 -17 -13 vvcurveto
        -17 9 -18 13 -16 vhcurveto
        12 -16 16 -16 16 -15 21 -21 25 -24 17 -27 rrcurveto
        17 -28 13 -31 -36 vvcurveto
        -35 -8 -37 -20 -28 vhcurveto
        return
      </CharString>
      <CharString index="26">
        -101 callgsubr
        33 callgsubr
        endchar
      </CharString>
      <CharString index="27">
        -79 -56 callsubr
        52 90 rlineto
        return
      </CharString>
      <CharString index="28">
        448 101 6 callsubr
        12 -3 12 11 6 6 7 7 vhcurveto
        3 3 3 5 3 27 callgsubr
      </CharString>
      <CharString index="29">
        rmoveto
        -69 90 rlineto
        92 hlineto
        30 -35 31 35 rlineto
        92 hlineto
        -69 -90 rlineto
        return
      </CharString>
      <CharString index="30">
        -1 -30 -6 -27 -11 -23 -9 -20 -14 -19 -20 -12 callsubr
        -20 -27 -9 -36 hhcurveto
        return
      </CharString>
      <CharString index="31">
        rmoveto
        -87 callsubr
        endchar
      </CharString>
      <CharString index="32">
        -9 -11 -81 callsubr
        return
      </CharString>
      <CharString index="33">
        -56 310 rlineto
        -29 -310 11 callgsubr
        108 hlineto
        129 55 -73 -139 -73 -19 -66 -41 -28 hvcurveto
        69 -356 rlineto
        hintmask 10100000
        -193 410 rmoveto
        15 20 2 14 16 hvcurveto
        16 14 13 27 52 vvcurveto
        52 -13 28 -16 14 vhcurveto
        14 -16 -20 1 -15 hhcurveto
        return
      </CharString>
      <CharString index="34">
        36 36 -16 hvcurveto
        -9 21 -6 24 -1 27 rrcurveto
        return
      </CharString>
      <CharString index="35">
        rmoveto
        247 -70 callsubr
        endchar
      </CharString>
      <CharString index="36">
        -13 -9 -11 -11 -75 callgsubr
        return
      </CharString>
      <CharString index="37">
        -55 -31 callgsubr
        -56 callgsubr
        return
      </CharString>
      <CharString index="38">
        66 -8 751 -20 callsubr
        321 151 -106 callgsubr
      </CharString>
      <CharString index="39">
        22 callgsubr
        -14 10 -24 callgsubr
        23 9 12 15 5 -16 callsubr
        return
      </CharString>
      <CharString index="40">
        rmoveto
        -63 -15 callgsubr
        -36 4 callsubr
        return
      </CharString>
      <CharString index="41">
        hvcurveto
        -3 -8 -1 -9 return
      </CharString>
      <CharString index="42">
        78 496 rmoveto
        -3 19 rlineto
        -6 hlineto
        -3 -19 -31 -232 rlineto
        74 hlineto
        endchar
      </CharString>
      <CharString index="43">
        hhcurveto
        65 33 -36 3 callgsubr
        9 -21 6 -23 1 -26 rrcurveto
        return
      </CharString>
      <CharString index="44">
        -17 0 -22 4 -18 vhcurveto
        -18 4 8 -15 16 hhcurveto
        8 10 1 1 7 hvcurveto
        4 1 4 0 4 1 rrcurveto
        -99 vlineto
        -5 -1 -5 -2 -5 -1 rrcurveto
        -2 -10 -13 -1 -16 hhcurveto
        -59 -28 30 38 -14 hvcurveto
        -14 38 -1 46 32 vvcurveto
        280 -51 91 51 135 vlineto
        return
      </CharString>
      <CharString index="45">
        rmoveto
        3 -9 -10 1 -9 hhcurveto
        -16 -19 -2 -15 -16 hvcurveto
        -19 -16 -3 -17 -17 vvcurveto
        -380 -101 547 101 -61 vlineto
        1 7 7 17 16 16 rrcurveto
        15 16 24 14 37 hhcurveto
        return
      </CharString>
      <CharString index="46">
        hstemhm
        141 22 -22 60 hintmask 10100000
        141 8 callgsubr
        -349 5 vlineto
        6 18 49 143 rlineto
        91 hlineto
        -73 -178 92 -369 rlineto
        hintmask 11000000
        -97 hlineto
        -50 221 -2 8 rlineto
        -5 hlineto
        -3 -8 -13 -32 rlineto
        -189 -101 735 vlineto
        return
      </CharString>
      <CharString index="47">
        hlineto
        17 16 15 12 20 9 25 callgsubr
        10 2 9 hhcurveto
        28 19 -16 -20 13 hvcurveto
        12 -21 6 -27 -23 vvcurveto
        -349 vlineto
        -23 -6 -27 -12 -20 vhcurveto
        -21 -13 -19 -16 -28 hhcurveto
        -19 -20 11 11 -15 hvcurveto
        -9 7 -8 7 -9 8 rrcurveto
        return
      </CharString>
      <CharString index="48">
        9 hhcurveto
        27 19 -16 -20 12 hvcurveto
        12 -21 6 -27 -23 vvcurveto
        -448 return
      </CharString>
      <CharString index="49">
        -10 12 vhcurveto
        -36 callgsubr
        return
      </CharString>
      <CharString index="50">
        915 -88 callsubr
        return
      </CharString>
      <CharString index="51">
        35 130 rlineto
        -35 111 105 hlineto
        return
      </CharString>
      <CharString index="52">
        20 -4 14 -10 12 vhcurveto
        5 -5 -8 3 -9 23 callsubr
        return
      </CharString>
      <CharString index="53">
        825 -78 callgsubr
        return
      </CharString>
      <CharString index="54">
        735 -66 callsubr
        return
      </CharString>
      <CharString index="55">
        hstem
        10 221 vstem
        162 682 rmoveto
        -135 69 -91 -69 -272 vlineto
        -63 callgsubr
        return
      </CharString>
      <CharString index="56">
        -44 callsubr
        hintmask 11100000
        -46 callgsubr
        return
      </CharString>
      <CharString index="57">
        -47 callsubr
        417 99 -735 -96 hlineto
        return
      </CharString>
      <CharString index="58">
        rmoveto
        169 512 rlineto
        -145 107 262 -107 hlineto
        -172 -521 rlineto
        172 -107 -286 hlineto
        endchar
      </CharString>
      <CharString index="59">
        rmoveto
        55 130 rlineto
        50 hlineto
        -35 -130 rlineto
        35 -21 callgsubr
        return
      </CharString>
      <CharString index="60">
        -70 callgsubr
        148 -111 -52 callsubr
      </CharString>
      <CharString index="61">
        38 hmoveto
        -19 18 -16 19 19 18 16 19 19 -18 16 -19 -19 -18 -16 -19 vhcurveto
        return
      </CharString>
      <CharString index="62">
        rmoveto
        21 -3 16 5 12 16 rrcurveto
        6 7 3 12 17 vvcurveto
        582 108 -599 vlineto
        -40 -10 -37 -25 -27 vhcurveto
        -25 -27 -42 -16 -64 4 rrcurveto
        endchar
      </CharString>
      <CharString index="63">
        898 -66 callsubr
        return
      </CharString>
      <CharString index="64">
        890 -88 callsubr
        return
      </CharString>
      <CharString index="65">
        hstemhm
        148 35.5 -35.5 99 hintmask 10100000
        148 8 callgsubr
        -257 4 vlineto
        5 12 90 245 rlineto
        105 hlineto
        -99 -242 112 -493 rlineto
        hintmask 11000000
        -105 hlineto
        -75 320 -3 15 rlineto
        -3 hlineto
        -6 -15 -25 -60 rlineto
        -260 11 callgsubr
        vlineto
        return
      </CharString>
      <CharString index="66">
        915 -80 callsubr
        return
      </CharString>
      <CharString index="67">
        rrcurveto
        -17 -19 -16 -25 -28 vvcurveto
        -45 37 -40 65 return
      </CharString>
      <CharString index="68">
        108 -735 -108 hlineto
        endchar
      </CharString>
      <CharString index="69">
        101 431 hlineto
        -18 callgsubr
        -433 101 448 vlineto
        -14 callgsubr
        -12 21 vhcurveto
        -33 callsubr
        endchar
      </CharString>
      <CharString index="70">
        -84 hlineto
        -99 735 rlineto
        100 hlineto
        43 -382 2 -24 rlineto
        8 hlineto
        3 24 46 382 rlineto
        78 hlineto
        46 -382 3 -24 rlineto
        8 hlineto
        2 24 43 382 rlineto
        100 hlineto
        -99 -735 rlineto
        -84 hlineto
        -50 348 -6 43 rlineto
        -4 hlineto
        -6 -43 rlineto
        endchar
      </CharString>
      <CharString index="71">
        5 -5 -8 3 callsubr
        return
      </CharString>
      <CharString index="72">
        rmoveto
        194 -79 -194 hlineto
        return
      </CharString>
      <CharString index="73">
        hlineto
        -71 callgsubr
        -22 callgsubr
        return
      </CharString>
      <CharString index="74">
        1 9 11 vvcurveto
        return
      </CharString>
      <CharString index="75">
        727 -48 callsubr
        return
      </CharString>
      <CharString index="76">
        -130 rlineto
        -50 hlineto
        return
      </CharString>
      <CharString index="77">
        34 -27 callgsubr
        88 return
      </CharString>
      <CharString index="78">
        -3 -53 -16 -37 return
      </CharString>
      <CharString index="79">
        547 32 callsubr
        vlineto
        endchar
      </CharString>
      <CharString index="80">
        196 59 79 133 return
      </CharString>
      <CharString index="81">
        rmoveto
        -28 callgsubr
      </CharString>
      <CharString index="82">
        rmoveto
        108 -635 143 -100 -251 hlineto
        return
      </CharString>
      <CharString index="83">
        -11 rrcurveto
        -6 callsubr
        return
      </CharString>
      <CharString index="84">
        721 -35 callgsubr
        return
      </CharString>
      <CharString index="85">
        9 20 12 15 17 15 rrcurveto
        return
      </CharString>
      <CharString index="86">
        -111 -105 hlineto
        return
      </CharString>
      <CharString index="87">
        -41 callsubr
        65 hstem
        return
      </CharString>
      <CharString index="88">
        -20 hvcurveto
        -20 return
      </CharString>
      <CharString index="89">
        3 5 3 4 3 4 rrcurveto
        7 7 6 6 11 hhcurveto
        12 12 -3 -21 hvcurveto
        return
      </CharString>
      <CharString index="90">
        433 vlineto
        return
      </CharString>
      <CharString index="91">
        hstem
        182.5 9 vstem
        return
      </CharString>
      <CharString index="92">
        vlineto
        -29 callgsubr
        return
      </CharString>
      <CharString index="93">
        23 -6 27 return
      </CharString>
      <CharString index="94">
        -137 -130 18 callsubr
        15 callgsubr
        endchar
      </CharString>
      <CharString index="95">
        909 -35 callgsubr
        return
      </CharString>
      <CharString index="96">
        -14 10 -11 return
      </CharString>
      <CharString index="97">
        rmoveto
        33 21 6 17 12 hvcurveto
        12 16 3 27 0 41 0 41 -3 29 18 flex1
        18 -12 -21 8 -33 hhcurveto
        endchar
      </CharString>
      <CharString index="98">
        15 15 12 14 19 vhcurveto
        307 vlineto
        19 -12 14 -15 -15 -15 return
      </CharString>
      <CharString index="99">
        -24 callsubr
        endchar
      </CharString>
      <CharString index="100">
        rmoveto
        -77 callsubr
        return
      </CharString>
      <CharString index="101">
        hstemhm
        124 95 -80 80 hintmask 10100000
        return
      </CharString>
      <CharString index="102">
        hhcurveto
        -19 -9 -14 -13 return
      </CharString>
      <CharString index="103">
        hlineto
        47 47 -12 -34 36 hvcurveto
        36 -34 24 -56 -84 vvcurveto
        -84 -24 -55 -36 -34 vhcurveto
        -34 -36 -47 -14 -47 hhcurveto
        return
      </CharString>
      <CharString index="104">
        31 callgsubr
        200 82 13 callgsubr
        return
      </CharString>
      <CharString index="105">
        31 callsubr
        260 82 13 callsubr
        return
      </CharString>
      <CharString index="106">
        33 555 82 0 callgsubr
        return
      </CharString>
      <CharString index="107">
        hstem
        126 69 vstem
        return
      </CharString>
      <CharString index="108">
        86 735 65 -16 callgsubr
        return
      </CharString>
      <CharString index="109">
        923 -27 callsubr
        return
      </CharString>
      <CharString index="110">
        -35 16 hvcurveto
        return
      </CharString>
      <CharString index="111">
        -22 callgsubr
        endchar
      </CharString>
      <CharString index="112">
        547 90 42 callsubr
        return
      </CharString>
      <CharString index="113">
        hstem
        126 73 vstem
        return
      </CharString>
      <CharString index="114">
        108 -584 return
      </CharString>
      <CharString index="115">
        735 rmoveto
        return
      </CharString>
      <CharString index="116">
        hhcurveto
        -23 -9 -16 -19 -5 hvcurveto
        -3 -10 -1 -10 -10 -11 0 -8 -6 vvcurveto
        -14 return
      </CharString>
      <CharString index="117">
        -15 269 rlineto
        105 hlineto
        -15 -269 rlineto
        return
      </CharString>
      <CharString index="118">
        -108 735 return
      </CharString>
      <CharString index="119">
        -111 -35 vlineto
        35 -31 callgsubr
        -55 130 rlineto
        111 vlineto
        return
      </CharString>
      <CharString index="120">
        hstem
        133 57 vstem
        return
      </CharString>
      <CharString index="121">
        -1 -9 1 return
      </CharString>
      <CharString index="122">
        hmoveto
        -70 callgsubr
        return
      </CharString>
      <CharString index="123">
        45 555 82 5 callsubr
        return
      </CharString>
      <CharString index="124">
        66 743 57 -20 callsubr
        return
      </CharString>
      <CharString index="125">
        vlineto
        24 callgsubr
        return
      </CharString>
      <CharString index="126">
        456 -51 91 51 15 vlineto
        28 return
      </CharString>
      <CharString index="127">
        hstemhm
        148 29 -29 80 return
      </CharString>
      <CharString index="128">
        12 38 callsubr
        return
      </CharString>
      <CharString index="129">
        vlineto
        11 callsubr
        return
      </CharString>
      <CharString index="130">
        -11 hvcurveto
        -6 12 -3 14 17 vvcurveto
        213 vlineto
        32 12 return
      </CharString>
      <CharString index="131">
        -29 callgsubr
        -35 4 callsubr
        return
      </CharString>
      <CharString index="132">
        rrcurveto
        5 9 return
      </CharString>
      <CharString index="133">
        10 callsubr
        66 30 callsubr
        return
      </CharString>
      <CharString index="134">
        5 rrcurveto
        endchar
      </CharString>
      <CharString index="135">
        hlineto
        28 205 rlineto
        96 hlineto
        -28 -205 rlineto
        return
      </CharString>
      <CharString index="136">
        -87 callgsubr
        -5 callsubr
        return
      </CharString>
      <CharString index="137">
        81.5 return
      </CharString>
      <CharString index="138">
        27 202 153 return
      </CharString>
      <CharString index="139">
        147 72 return
      </CharString>
      <CharString index="140">
        584 vlineto
        return
      </CharString>
      <CharString index="141">
        107 2 callsubr
        139 117 vstem
        return
      </CharString>
      <CharString index="142">
        72 88 187 91 105 return
      </CharString>
      <CharString index="143">
        637 90 hstem
        return
      </CharString>
      <CharString index="144">
        743 hstem
        return
      </CharString>
      <CharString index="145">
        -45 callsubr
        hstem
        return
      </CharString>
      <CharString index="146">
        -188 67 return
      </CharString>
      <CharString index="147">
        -17 hhcurveto
        -23 return
      </CharString>
      <CharString index="148">
        hstem
        153 194 vstem
        153 return
      </CharString>
      <CharString index="149">
        vmoveto
        105 -21 callgsubr
        endchar
      </CharString>
      <CharString index="150">
        547 87 hstem
        return
      </CharString>
      <CharString index="151">
        286 vstem
        return
      </CharString>
</ttFont>
